<svg width="80" height="77" viewBox="0 0 80 77" fill="none" xmlns="http://www.w3.org/2000/svg">
<path d="M40 76.1905C62.0914 76.1905 80 59.1347 80 38.0952C80 17.0558 62.0914 0 40 0C17.9086 0 0 17.0558 0 38.0952C0 59.1347 17.9086 76.1905 40 76.1905Z" fill="#DBEAFE"/>
<path d="M41 39.0476C46.5228 39.0476 51 34.7837 51 29.5238C51 24.264 46.5228 20 41 20C35.4772 20 31 24.264 31 29.5238C31 34.7837 35.4772 39.0476 41 39.0476Z" fill="#1E40AF"/>
<path d="M41 40C27.6667 40 21 45.0794 21 55.2381H61C61 45.0794 54.3333 40 41 40Z" fill="#1E40AF"/>
</svg>
