<svg width="90" height="90" viewBox="0 0 90 90" fill="none" xmlns="http://www.w3.org/2000/svg">
<g clip-path="url(#clip0_1065_50)">
<path d="M90 45.0002V44.9777C90 31.6615 84.2025 19.7027 74.9963 11.479L74.9513 11.4415C74.8375 11.319 74.7105 11.2096 74.5725 11.1152L74.565 11.1115C66.388 3.93312 55.8734 -0.0161857 44.9925 0.00398312C33.6225 0.00398312 23.2425 4.22648 15.33 11.194L15.3788 11.1527C15.2837 11.2254 15.1958 11.307 15.1163 11.3965C10.3597 15.6086 6.5523 20.787 3.94631 26.5815C1.34032 32.3759 -0.00481269 38.658 1.2938e-05 45.0115C1.2938e-05 58.324 5.79001 70.2827 14.9888 78.5102L15.0338 78.5477C15.1534 78.6823 15.2866 78.8042 15.4313 78.9115L15.4388 78.9152C23.6132 86.0839 34.1201 90.0275 44.9925 90.0077C55.9157 90.0245 66.4677 86.0443 74.6588 78.8177L74.61 78.859C79.4492 74.6517 83.3283 69.4541 85.9847 63.6178C88.6412 57.7815 90.0131 51.4427 90.0075 45.0302V45.004L90 45.0002ZM73.2675 74.269C71.0375 72.467 68.6403 70.8823 66.1088 69.5365L65.865 69.4165C68.1638 62.7902 69.5475 55.1515 69.6788 47.2052V47.1452H85.6575C85.1201 57.4258 80.6951 67.1178 73.2788 74.2577L73.2675 74.269ZM47.145 68.6252C51.9563 68.884 56.4525 69.9415 60.6 71.6627L60.33 71.5652C57.0075 79.1402 52.3313 84.3452 47.145 85.489V68.6252ZM47.145 64.3352V47.1452H65.4C65.2548 54.2637 64.0205 61.3179 61.74 68.0627L61.8863 67.5715C57.2313 65.6552 52.2791 64.5615 47.25 64.339L47.1488 64.3352H47.145ZM47.145 42.8552V25.6652C52.3095 25.4303 57.3939 24.2997 62.1713 22.324L61.875 22.4327C63.9563 28.504 65.235 35.5015 65.4 42.7765V42.8552H47.145ZM47.145 21.3752V4.51898C52.3313 5.66273 57.0075 10.8452 60.33 18.4427C56.4525 20.0552 51.9563 21.109 47.2538 21.3715L47.145 21.3752ZM57.8475 6.37523C62.2676 7.84629 66.4007 10.0689 70.065 12.9452L69.9788 12.8777C68.3175 14.1827 66.4538 15.4127 64.4888 16.4815L64.2788 16.5865C62.6951 12.8371 60.5115 9.37046 57.8138 6.32273L57.8475 6.36398V6.37523ZM42.8475 4.53023V21.3752C38.2218 21.1396 33.6708 20.1122 29.3925 18.3377L29.6625 18.4352C33 10.8602 37.6688 5.65898 42.855 4.51523L42.8475 4.53023ZM25.7175 16.5752C23.6853 15.4807 21.7485 14.2175 19.9275 12.799L20.0175 12.8665C23.575 10.0744 27.5789 7.90383 31.86 6.44648L32.145 6.36023C29.5206 9.32735 27.3828 12.6916 25.8113 16.3277L25.7175 16.5752ZM42.855 25.6615V42.8515H24.6C24.765 35.4977 26.0438 28.5002 28.2713 21.9377L28.125 22.429C32.7801 24.3359 37.7285 25.4281 42.7538 25.6577L42.855 25.6615ZM42.855 47.1415V64.3315C37.6905 64.5664 32.6062 65.697 27.8288 67.6727L28.125 67.564C26.0438 61.4965 24.765 54.4952 24.6 47.2202V47.1415H42.855ZM42.855 68.6215V85.4777C37.6688 84.334 32.9925 79.1515 29.67 71.554C33.5475 69.9415 38.0438 68.8915 42.7463 68.629L42.855 68.6215ZM32.1675 83.6215C27.7514 82.1482 23.6195 79.9313 19.95 77.0665L20.04 77.134C21.7013 75.829 23.565 74.599 25.53 73.5302L25.74 73.4252C27.3119 77.1754 29.4953 80.6387 32.2013 83.674L32.1675 83.6365V83.6215ZM64.2825 73.4215C66.4575 74.6027 68.3213 75.829 70.0725 77.1977L69.9825 77.1302C66.425 79.9223 62.4211 82.0929 58.14 83.5502L57.855 83.6365C60.4791 80.6705 62.6169 77.3076 64.1888 73.6727L64.2825 73.429V73.4215ZM85.6575 42.8552H69.6788C69.5615 35.0965 68.2226 27.4047 65.7113 20.0627L65.865 20.5802C68.5138 19.1851 71.0217 17.5375 73.3538 15.6602L73.2638 15.7277C80.6675 22.8387 85.0947 32.4959 85.65 42.7465L85.6575 42.8552ZM16.7325 15.7315C18.8925 17.4865 21.3188 19.0952 23.8913 20.464L24.135 20.584C21.8363 27.2102 20.4525 34.849 20.3213 42.7952V42.8552H4.33876C4.87612 32.5746 9.3012 22.8826 16.7175 15.7427L16.7325 15.7315ZM4.34251 47.1452H20.3213C20.4385 54.9039 21.7774 62.5957 24.2888 69.9377L24.135 69.4202C21.3188 70.9165 18.8963 72.5252 16.6463 74.3402L16.7363 74.2727C9.33249 67.1617 4.90532 57.5045 4.35001 47.254L4.34626 47.149L4.34251 47.1452Z" fill="#5ED1D6"/>
</g>
<defs>
<clipPath id="clip0_1065_50">
<rect width="90" height="90" fill="white"/>
</clipPath>
</defs>
</svg>
