<svg width="30" height="22" viewBox="0 0 30 22" fill="none" xmlns="http://www.w3.org/2000/svg">
<path d="M12.0985 18.8802C12.2674 19.0376 12.4028 19.2273 12.4967 19.4382C12.5907 19.649 12.6412 19.8766 12.6453 20.1074C12.6493 20.3382 12.6069 20.5674 12.5204 20.7814C12.434 20.9954 12.3053 21.1898 12.1421 21.353C11.9789 21.5162 11.7845 21.6449 11.5705 21.7314C11.3565 21.8178 11.1272 21.8602 10.8965 21.8562C10.6657 21.8521 10.4381 21.8016 10.2273 21.7077C10.0164 21.6137 9.82667 21.4783 9.66932 21.3094L0.502653 12.1427C0.180788 11.8205 -4.57781e-07 11.3836 -4.77691e-07 10.9282C-4.976e-07 10.4727 0.180788 10.0358 0.502653 9.71357L9.66932 0.546905C9.82667 0.37804 10.0164 0.242599 10.2273 0.148658C10.4381 0.0547176 10.6657 0.00420714 10.8965 0.000134945C11.1272 -0.00393535 11.3565 0.0385146 11.5705 0.124959C11.7845 0.211402 11.9789 0.340068 12.1421 0.503278C12.3053 0.666488 12.434 0.860898 12.5204 1.07491C12.6069 1.28893 12.6493 1.51816 12.6453 1.74894C12.6412 1.97971 12.5907 2.20731 12.4967 2.41814C12.4028 2.62897 12.2674 2.81872 12.0985 2.97607L5.86515 9.20941L28.0714 9.20941C28.5272 9.20941 28.9644 9.39049 29.2867 9.71282C29.6091 10.0351 29.7902 10.4723 29.7902 10.9282C29.7902 11.384 29.6091 11.8212 29.2867 12.1435C28.9644 12.4658 28.5272 12.6469 28.0714 12.6469L5.86515 12.6469L12.0985 18.8802Z" fill="#1E293B"/>
</svg>
