<svg width="339" height="393" viewBox="0 0 339 393" fill="none" xmlns="http://www.w3.org/2000/svg">
<g filter="url(#filter0_d_3043_38)">
<rect x="10" y="1" width="319" height="373" rx="20" fill="#5ED1D6" fill-opacity="0.05" shape-rendering="crispEdges"/>
</g>
<path d="M169.5 93.6667V79H133V145H206V93.6667H169.5ZM147.6 137.667H140.3V130.333H147.6V137.667ZM147.6 123H140.3V115.667H147.6V123ZM147.6 108.333H140.3V101H147.6V108.333ZM147.6 93.6667H140.3V86.3333H147.6V93.6667ZM162.2 137.667H154.9V130.333H162.2V137.667ZM162.2 123H154.9V115.667H162.2V123ZM162.2 108.333H154.9V101H162.2V108.333ZM162.2 93.6667H154.9V86.3333H162.2V93.6667ZM198.7 137.667H169.5V130.333H176.8V123H169.5V115.667H176.8V108.333H169.5V101H198.7V137.667ZM191.4 108.333H184.1V115.667H191.4V108.333ZM191.4 123H184.1V130.333H191.4V123Z" fill="#1E40AF"/>
<path d="M106.862 238V217.636H120.583V221.186H111.167V226.038H119.877V229.588H111.167V234.45H120.623V238H106.862ZM123.927 238V222.727H127.964V225.422H128.143C128.461 224.527 128.991 223.821 129.733 223.304C130.476 222.787 131.364 222.528 132.398 222.528C133.446 222.528 134.337 222.79 135.073 223.314C135.809 223.831 136.299 224.534 136.545 225.422H136.704C137.015 224.547 137.579 223.848 138.394 223.324C139.216 222.794 140.187 222.528 141.307 222.528C142.733 222.528 143.889 222.982 144.778 223.891C145.672 224.792 146.12 226.071 146.12 227.729V238H141.894V228.564C141.894 227.715 141.669 227.079 141.218 226.655C140.767 226.231 140.204 226.018 139.528 226.018C138.759 226.018 138.159 226.264 137.728 226.754C137.297 227.238 137.081 227.878 137.081 228.673V238H132.975V228.474C132.975 227.725 132.76 227.129 132.329 226.685C131.904 226.241 131.344 226.018 130.648 226.018C130.178 226.018 129.753 226.138 129.376 226.376C129.004 226.608 128.709 226.937 128.491 227.361C128.272 227.778 128.162 228.269 128.162 228.832V238H123.927ZM149.466 243.727V222.727H153.642V225.293H153.831C154.016 224.882 154.285 224.464 154.636 224.04C154.994 223.609 155.458 223.251 156.028 222.966C156.605 222.674 157.321 222.528 158.176 222.528C159.29 222.528 160.317 222.82 161.258 223.403C162.2 223.98 162.952 224.852 163.515 226.018C164.079 227.179 164.361 228.634 164.361 230.384C164.361 232.087 164.086 233.526 163.535 234.699C162.992 235.866 162.249 236.75 161.308 237.354C160.373 237.95 159.326 238.249 158.166 238.249C157.344 238.249 156.645 238.113 156.068 237.841C155.498 237.569 155.031 237.228 154.666 236.817C154.301 236.399 154.023 235.978 153.831 235.554H153.702V243.727H149.466ZM153.612 230.364C153.612 231.272 153.738 232.064 153.99 232.74C154.242 233.416 154.606 233.943 155.084 234.321C155.561 234.692 156.141 234.878 156.824 234.878C157.513 234.878 158.096 234.689 158.574 234.311C159.051 233.927 159.412 233.396 159.657 232.72C159.909 232.037 160.035 231.252 160.035 230.364C160.035 229.482 159.913 228.706 159.667 228.037C159.422 227.367 159.061 226.844 158.584 226.466C158.106 226.088 157.52 225.899 156.824 225.899C156.134 225.899 155.551 226.081 155.074 226.446C154.603 226.811 154.242 227.328 153.99 227.997C153.738 228.667 153.612 229.455 153.612 230.364ZM171.42 217.636V238H167.184V217.636H171.42ZM181.714 238.298C180.169 238.298 178.834 237.97 177.707 237.314C176.587 236.651 175.722 235.73 175.112 234.55C174.502 233.363 174.197 231.988 174.197 230.423C174.197 228.846 174.502 227.467 175.112 226.287C175.722 225.1 176.587 224.179 177.707 223.523C178.834 222.86 180.169 222.528 181.714 222.528C183.258 222.528 184.591 222.86 185.711 223.523C186.838 224.179 187.706 225.1 188.316 226.287C188.926 227.467 189.231 228.846 189.231 230.423C189.231 231.988 188.926 233.363 188.316 234.55C187.706 235.73 186.838 236.651 185.711 237.314C184.591 237.97 183.258 238.298 181.714 238.298ZM181.734 235.017C182.436 235.017 183.023 234.818 183.494 234.42C183.964 234.016 184.319 233.466 184.558 232.77C184.803 232.074 184.926 231.282 184.926 230.393C184.926 229.505 184.803 228.713 184.558 228.017C184.319 227.321 183.964 226.771 183.494 226.366C183.023 225.962 182.436 225.76 181.734 225.76C181.025 225.76 180.428 225.962 179.944 226.366C179.467 226.771 179.106 227.321 178.86 228.017C178.622 228.713 178.502 229.505 178.502 230.393C178.502 231.282 178.622 232.074 178.86 232.77C179.106 233.466 179.467 234.016 179.944 234.42C180.428 234.818 181.025 235.017 181.734 235.017ZM194.108 243.727C193.571 243.727 193.067 243.684 192.597 243.598C192.133 243.518 191.748 243.416 191.443 243.29L192.398 240.128C192.895 240.28 193.343 240.363 193.74 240.376C194.145 240.39 194.493 240.297 194.784 240.098C195.083 239.899 195.325 239.561 195.51 239.084L195.759 238.438L190.28 222.727H194.735L197.896 233.943H198.056L201.247 222.727H205.732L199.796 239.651C199.511 240.473 199.123 241.188 198.632 241.798C198.148 242.415 197.535 242.889 196.793 243.22C196.05 243.558 195.155 243.727 194.108 243.727ZM214.367 238.298C212.796 238.298 211.444 237.98 210.311 237.344C209.184 236.701 208.315 235.793 207.705 234.619C207.096 233.439 206.791 232.044 206.791 230.433C206.791 228.862 207.096 227.483 207.705 226.297C208.315 225.11 209.174 224.186 210.281 223.523C211.394 222.86 212.7 222.528 214.198 222.528C215.206 222.528 216.144 222.691 217.012 223.016C217.887 223.334 218.65 223.814 219.299 224.457C219.955 225.1 220.466 225.909 220.83 226.884C221.195 227.851 221.377 228.985 221.377 230.284V231.447H208.481V228.822H217.39C217.39 228.213 217.258 227.672 216.992 227.202C216.727 226.731 216.359 226.363 215.889 226.098C215.425 225.826 214.884 225.69 214.268 225.69C213.625 225.69 213.055 225.839 212.558 226.138C212.067 226.429 211.683 226.824 211.404 227.321C211.126 227.812 210.983 228.358 210.977 228.962V231.457C210.977 232.213 211.116 232.866 211.394 233.416C211.679 233.966 212.08 234.391 212.597 234.689C213.115 234.987 213.728 235.136 214.437 235.136C214.908 235.136 215.338 235.07 215.73 234.938C216.121 234.805 216.455 234.606 216.734 234.341C217.012 234.076 217.224 233.751 217.37 233.366L221.288 233.625C221.089 234.566 220.681 235.388 220.065 236.091C219.455 236.787 218.666 237.33 217.698 237.722C216.737 238.106 215.627 238.298 214.367 238.298ZM224.142 238V222.727H228.248V225.392H228.407C228.686 224.444 229.153 223.728 229.809 223.244C230.465 222.754 231.221 222.509 232.076 222.509C232.288 222.509 232.517 222.522 232.762 222.548C233.008 222.575 233.223 222.611 233.409 222.658V226.416C233.21 226.357 232.935 226.304 232.583 226.257C232.232 226.211 231.91 226.188 231.619 226.188C230.996 226.188 230.439 226.323 229.948 226.595C229.464 226.86 229.08 227.232 228.795 227.709C228.517 228.186 228.377 228.736 228.377 229.359V238H224.142ZM125.203 265V249H130.797C131.911 249 132.831 249.193 133.555 249.578C134.279 249.958 134.818 250.471 135.172 251.117C135.526 251.758 135.703 252.469 135.703 253.25C135.703 253.937 135.581 254.505 135.336 254.953C135.096 255.401 134.779 255.755 134.383 256.016C133.992 256.276 133.568 256.469 133.109 256.594V256.75C133.599 256.781 134.091 256.953 134.586 257.266C135.081 257.578 135.495 258.026 135.828 258.609C136.161 259.193 136.328 259.906 136.328 260.75C136.328 261.552 136.146 262.273 135.781 262.914C135.417 263.555 134.841 264.062 134.055 264.437C133.268 264.812 132.245 265 130.984 265H125.203ZM127.141 263.281H130.984C132.25 263.281 133.148 263.036 133.68 262.547C134.216 262.052 134.484 261.453 134.484 260.75C134.484 260.208 134.346 259.708 134.07 259.25C133.794 258.786 133.401 258.417 132.891 258.141C132.38 257.859 131.776 257.719 131.078 257.719H127.141V263.281ZM127.141 256.031H130.734C131.318 256.031 131.844 255.917 132.313 255.687C132.786 255.458 133.161 255.135 133.438 254.719C133.719 254.302 133.859 253.812 133.859 253.25C133.859 252.547 133.615 251.951 133.125 251.461C132.635 250.966 131.859 250.719 130.797 250.719H127.141V256.031ZM146.824 260.094V253H148.668V265H146.824V262.969H146.699C146.418 263.578 145.98 264.096 145.387 264.523C144.793 264.945 144.043 265.156 143.137 265.156C142.387 265.156 141.72 264.992 141.137 264.664C140.553 264.331 140.095 263.831 139.762 263.164C139.428 262.492 139.262 261.646 139.262 260.625V253H141.105V260.5C141.105 261.375 141.35 262.073 141.84 262.594C142.335 263.115 142.965 263.375 143.73 263.375C144.189 263.375 144.655 263.258 145.129 263.023C145.608 262.789 146.009 262.43 146.332 261.945C146.66 261.461 146.824 260.844 146.824 260.094ZM160.545 255.687L158.889 256.156C158.785 255.88 158.631 255.612 158.428 255.352C158.23 255.086 157.959 254.867 157.615 254.695C157.271 254.523 156.831 254.437 156.295 254.437C155.561 254.437 154.949 254.607 154.459 254.945C153.975 255.279 153.732 255.703 153.732 256.219C153.732 256.677 153.899 257.039 154.232 257.305C154.566 257.57 155.087 257.792 155.795 257.969L157.576 258.406C158.649 258.667 159.449 259.065 159.975 259.602C160.501 260.133 160.764 260.818 160.764 261.656C160.764 262.344 160.566 262.958 160.17 263.5C159.779 264.042 159.232 264.469 158.529 264.781C157.826 265.094 157.008 265.25 156.076 265.25C154.852 265.25 153.839 264.984 153.037 264.453C152.235 263.922 151.727 263.146 151.514 262.125L153.264 261.687C153.43 262.333 153.745 262.818 154.209 263.141C154.678 263.464 155.29 263.625 156.045 263.625C156.904 263.625 157.587 263.443 158.092 263.078C158.602 262.708 158.857 262.266 158.857 261.75C158.857 261.333 158.712 260.984 158.42 260.703C158.128 260.417 157.68 260.203 157.076 260.062L155.076 259.594C153.977 259.333 153.17 258.93 152.654 258.383C152.144 257.831 151.889 257.141 151.889 256.312C151.889 255.635 152.079 255.036 152.459 254.516C152.844 253.995 153.368 253.586 154.029 253.289C154.696 252.992 155.451 252.844 156.295 252.844C157.482 252.844 158.415 253.104 159.092 253.625C159.774 254.146 160.258 254.833 160.545 255.687ZM163.539 265V253H165.383V265H163.539ZM164.477 251C164.117 251 163.807 250.878 163.547 250.633C163.292 250.388 163.164 250.094 163.164 249.75C163.164 249.406 163.292 249.112 163.547 248.867C163.807 248.622 164.117 248.5 164.477 248.5C164.836 248.5 165.143 248.622 165.398 248.867C165.659 249.112 165.789 249.406 165.789 249.75C165.789 250.094 165.659 250.388 165.398 250.633C165.143 250.878 164.836 251 164.477 251ZM170.604 257.781V265H168.76V253H170.541V254.875H170.697C170.979 254.266 171.406 253.776 171.979 253.406C172.551 253.031 173.291 252.844 174.197 252.844C175.01 252.844 175.721 253.01 176.33 253.344C176.939 253.672 177.413 254.172 177.752 254.844C178.09 255.51 178.26 256.354 178.26 257.375V265H176.416V257.5C176.416 256.557 176.171 255.823 175.682 255.297C175.192 254.766 174.52 254.5 173.666 254.5C173.077 254.5 172.551 254.628 172.088 254.883C171.63 255.138 171.268 255.51 171.002 256C170.736 256.49 170.604 257.083 170.604 257.781ZM186.66 265.25C185.504 265.25 184.507 264.995 183.668 264.484C182.835 263.969 182.191 263.25 181.738 262.328C181.29 261.401 181.066 260.323 181.066 259.094C181.066 257.865 181.29 256.781 181.738 255.844C182.191 254.901 182.822 254.167 183.629 253.641C184.441 253.109 185.389 252.844 186.473 252.844C187.098 252.844 187.715 252.948 188.324 253.156C188.934 253.365 189.488 253.703 189.988 254.172C190.488 254.635 190.887 255.25 191.184 256.016C191.48 256.781 191.629 257.724 191.629 258.844V259.625H182.379V258.031H189.754C189.754 257.354 189.618 256.75 189.348 256.219C189.082 255.687 188.702 255.268 188.207 254.961C187.717 254.654 187.139 254.5 186.473 254.5C185.738 254.5 185.103 254.682 184.566 255.047C184.035 255.406 183.626 255.875 183.34 256.453C183.053 257.031 182.91 257.651 182.91 258.312V259.375C182.91 260.281 183.066 261.049 183.379 261.68C183.697 262.305 184.137 262.781 184.699 263.109C185.262 263.432 185.915 263.594 186.66 263.594C187.145 263.594 187.582 263.526 187.973 263.391C188.368 263.25 188.71 263.042 188.996 262.766C189.283 262.484 189.504 262.135 189.66 261.719L191.441 262.219C191.254 262.823 190.939 263.354 190.496 263.812C190.053 264.266 189.507 264.62 188.855 264.875C188.204 265.125 187.473 265.25 186.66 265.25ZM202.934 255.687L201.277 256.156C201.173 255.88 201.02 255.612 200.816 255.352C200.618 255.086 200.348 254.867 200.004 254.695C199.66 254.523 199.22 254.437 198.684 254.437C197.949 254.437 197.337 254.607 196.848 254.945C196.363 255.279 196.121 255.703 196.121 256.219C196.121 256.677 196.288 257.039 196.621 257.305C196.954 257.57 197.475 257.792 198.184 257.969L199.965 258.406C201.038 258.667 201.837 259.065 202.363 259.602C202.889 260.133 203.152 260.818 203.152 261.656C203.152 262.344 202.954 262.958 202.559 263.5C202.168 264.042 201.621 264.469 200.918 264.781C200.215 265.094 199.397 265.25 198.465 265.25C197.241 265.25 196.228 264.984 195.426 264.453C194.624 263.922 194.116 263.146 193.902 262.125L195.652 261.687C195.819 262.333 196.134 262.818 196.598 263.141C197.066 263.464 197.678 263.625 198.434 263.625C199.293 263.625 199.975 263.443 200.48 263.078C200.991 262.708 201.246 262.266 201.246 261.75C201.246 261.333 201.1 260.984 200.809 260.703C200.517 260.417 200.069 260.203 199.465 260.062L197.465 259.594C196.366 259.333 195.559 258.93 195.043 258.383C194.533 257.831 194.277 257.141 194.277 256.312C194.277 255.635 194.467 255.036 194.848 254.516C195.233 253.995 195.757 253.586 196.418 253.289C197.085 252.992 197.84 252.844 198.684 252.844C199.871 252.844 200.803 253.104 201.48 253.625C202.163 254.146 202.647 254.833 202.934 255.687ZM214.428 255.687L212.771 256.156C212.667 255.88 212.514 255.612 212.311 255.352C212.113 255.086 211.842 254.867 211.498 254.695C211.154 254.523 210.714 254.437 210.178 254.437C209.443 254.437 208.831 254.607 208.342 254.945C207.857 255.279 207.615 255.703 207.615 256.219C207.615 256.677 207.782 257.039 208.115 257.305C208.449 257.57 208.969 257.792 209.678 257.969L211.459 258.406C212.532 258.667 213.331 259.065 213.857 259.602C214.383 260.133 214.646 260.818 214.646 261.656C214.646 262.344 214.449 262.958 214.053 263.5C213.662 264.042 213.115 264.469 212.412 264.781C211.709 265.094 210.891 265.25 209.959 265.25C208.735 265.25 207.722 264.984 206.92 264.453C206.118 263.922 205.61 263.146 205.396 262.125L207.146 261.687C207.313 262.333 207.628 262.818 208.092 263.141C208.561 263.464 209.173 263.625 209.928 263.625C210.787 263.625 211.469 263.443 211.975 263.078C212.485 262.708 212.74 262.266 212.74 261.75C212.74 261.333 212.594 260.984 212.303 260.703C212.011 260.417 211.563 260.203 210.959 260.062L208.959 259.594C207.86 259.333 207.053 258.93 206.537 258.383C206.027 257.831 205.771 257.141 205.771 256.312C205.771 255.635 205.962 255.036 206.342 254.516C206.727 253.995 207.251 253.586 207.912 253.289C208.579 252.992 209.334 252.844 210.178 252.844C211.365 252.844 212.298 253.104 212.975 253.625C213.657 254.146 214.141 254.833 214.428 255.687Z" fill="black"/>
<defs>
<filter id="filter0_d_3043_38" x="0" y="0" width="339" height="393" filterUnits="userSpaceOnUse" color-interpolation-filters="sRGB">
<feFlood flood-opacity="0" result="BackgroundImageFix"/>
<feColorMatrix in="SourceAlpha" type="matrix" values="0 0 0 0 0 0 0 0 0 0 0 0 0 0 0 0 0 0 127 0" result="hardAlpha"/>
<feOffset dy="9"/>
<feGaussianBlur stdDeviation="5"/>
<feComposite in2="hardAlpha" operator="out"/>
<feColorMatrix type="matrix" values="0 0 0 0 0 0 0 0 0 0 0 0 0 0 0 0 0 0 0.12 0"/>
<feBlend mode="normal" in2="BackgroundImageFix" result="effect1_dropShadow_3043_38"/>
<feBlend mode="normal" in="SourceGraphic" in2="effect1_dropShadow_3043_38" result="shape"/>
</filter>
</defs>
</svg>
