<svg width="14" height="14" viewBox="0 0 14 14" fill="none" xmlns="http://www.w3.org/2000/svg">
<path d="M13.5992 2.28555C13.8421 2.03408 13.9765 1.69728 13.9735 1.34768C13.9704 0.998084 13.8302 0.663668 13.583 0.416457C13.3358 0.169246 13.0014 0.0290205 12.6518 0.0259827C12.3022 0.0229448 11.9654 0.157338 11.7139 0.400215L6.99924 5.11488L2.28457 0.400215C2.16158 0.272868 2.01445 0.171292 1.85178 0.101413C1.68911 0.0315345 1.51415 -0.00524717 1.33711 -0.00678559C1.16007 -0.00832402 0.984495 0.0254113 0.820633 0.0924525C0.656771 0.159494 0.507902 0.258498 0.382712 0.383688C0.257521 0.508878 0.158517 0.657748 0.0914759 0.82161C0.0244347 0.985471 -0.00930058 1.16104 -0.00776216 1.33808C-0.00622374 1.51512 0.030558 1.69008 0.100437 1.85275C0.170315 2.01543 0.271892 2.16255 0.399239 2.28555L5.11391 7.00022L0.399239 11.7149C0.271892 11.8379 0.170315 11.985 0.100437 12.1477C0.030558 12.3103 -0.00622374 12.4853 -0.00776216 12.6623C-0.00930058 12.8394 0.0244347 13.015 0.0914759 13.1788C0.158517 13.3427 0.257521 13.4916 0.382712 13.6167C0.507902 13.7419 0.656771 13.8409 0.820633 13.908C0.984495 13.975 1.16007 14.0088 1.33711 14.0072C1.51415 14.0057 1.68911 13.9689 1.85178 13.899C2.01445 13.8291 2.16158 13.7276 2.28457 13.6002L6.99924 8.88555L11.7139 13.6002C11.8369 13.7276 11.984 13.8291 12.1467 13.899C12.3094 13.9689 12.4843 14.0057 12.6614 14.0072C12.8384 14.0088 13.014 13.975 13.1778 13.908C13.3417 13.8409 13.4906 13.7419 13.6158 13.6167C13.741 13.4916 13.84 13.3427 13.907 13.1788C13.974 13.015 14.0078 12.8394 14.0062 12.6623C14.0047 12.4853 13.9679 12.3103 13.898 12.1477C13.8282 11.985 13.7266 11.8379 13.5992 11.7149L8.88457 7.00022L13.5992 2.28555Z" fill="#D71E1E"/>
</svg>
