<svg width="96" height="96" viewBox="0 0 96 96" fill="none" xmlns="http://www.w3.org/2000/svg">
<path d="M8 24C8 17.98 11.12 11.68 16 8C16 11.38 18.76 16 24 16C27.1826 16 30.2348 17.2643 32.4853 19.5147C34.7357 21.7652 36 24.8174 36 28C36 29.544 35.684 31.008 35.152 32.364C38.1187 34.7191 41.0406 37.1302 43.916 39.596L35.596 47.916C33.1309 45.04 30.7199 42.1181 28.364 39.152C26.9748 39.704 25.4948 39.9916 24 40C15.16 40 8 32.84 8 24ZM56.608 51.392L61.972 46.028C64.4562 47.3062 67.2063 47.9818 70 48C74.7739 48 79.3523 46.1036 82.7279 42.7279C86.1036 39.3523 88 34.7739 88 30C88 27.1 87.248 24.396 86.028 21.972L72 36L64 28L78.028 13.972C75.5438 12.6938 72.7937 12.0182 70 12C65.2261 12 60.6477 13.8964 57.2721 17.2721C53.8964 20.6477 52 25.2261 52 30C52 32.9 52.752 35.604 53.972 38.028L12 80L20 88L47.392 60.608C54.9283 68.3346 62.9114 75.6124 71.3 82.404L77 87L83 81L78.404 75.3C71.6124 66.9114 64.3346 58.9283 56.608 51.392Z" fill="#5ED1D6"/>
</svg>
