<svg width="28" height="28" viewBox="0 0 28 28" fill="none" xmlns="http://www.w3.org/2000/svg">
<path d="M16.3333 24.5C16.0239 24.5 15.7272 24.3771 15.5084 24.1583C15.2896 23.9395 15.1667 23.6428 15.1667 23.3333V14C15.1667 13.6906 15.2896 13.3938 15.5084 13.175C15.7272 12.9562 16.0239 12.8333 16.3333 12.8333H23.3333C23.6428 12.8333 23.9395 12.9562 24.1583 13.175C24.3771 13.3938 24.5 13.6906 24.5 14V23.3333C24.5 23.6428 24.3771 23.9395 24.1583 24.1583C23.9395 24.3771 23.6428 24.5 23.3333 24.5H16.3333ZM4.66667 15.1667C4.35725 15.1667 4.0605 15.0437 3.84171 14.825C3.62292 14.6062 3.5 14.3094 3.5 14V4.66667C3.5 4.35725 3.62292 4.0605 3.84171 3.84171C4.0605 3.62292 4.35725 3.5 4.66667 3.5H11.6667C11.9761 3.5 12.2728 3.62292 12.4916 3.84171C12.7104 4.0605 12.8333 4.35725 12.8333 4.66667V14C12.8333 14.3094 12.7104 14.6062 12.4916 14.825C12.2728 15.0437 11.9761 15.1667 11.6667 15.1667H4.66667ZM10.5 12.8333V5.83333H5.83333V12.8333H10.5ZM4.66667 24.5C4.35725 24.5 4.0605 24.3771 3.84171 24.1583C3.62292 23.9395 3.5 23.6428 3.5 23.3333V18.6667C3.5 18.3572 3.62292 18.0605 3.84171 17.8417C4.0605 17.6229 4.35725 17.5 4.66667 17.5H11.6667C11.9761 17.5 12.2728 17.6229 12.4916 17.8417C12.7104 18.0605 12.8333 18.3572 12.8333 18.6667V23.3333C12.8333 23.6428 12.7104 23.9395 12.4916 24.1583C12.2728 24.3771 11.9761 24.5 11.6667 24.5H4.66667ZM5.83333 22.1667H10.5V19.8333H5.83333V22.1667ZM17.5 22.1667H22.1667V15.1667H17.5V22.1667ZM15.1667 4.66667C15.1667 4.35725 15.2896 4.0605 15.5084 3.84171C15.7272 3.62292 16.0239 3.5 16.3333 3.5H23.3333C23.6428 3.5 23.9395 3.62292 24.1583 3.84171C24.3771 4.0605 24.5 4.35725 24.5 4.66667V9.33333C24.5 9.64275 24.3771 9.9395 24.1583 10.1583C23.9395 10.3771 23.6428 10.5 23.3333 10.5H16.3333C16.0239 10.5 15.7272 10.3771 15.5084 10.1583C15.2896 9.9395 15.1667 9.64275 15.1667 9.33333V4.66667ZM17.5 5.83333V8.16667H22.1667V5.83333H17.5Z" fill="black"/>
</svg>
