<svg width="35" height="35" viewBox="0 0 35 35" fill="none" xmlns="http://www.w3.org/2000/svg">
<path d="M22.517 29.1667L23.9753 30.625H9.64573C8.97392 30.625 8.41344 30.4004 7.96427 29.9513C7.5151 29.5021 7.29003 28.9416 7.28906 28.2698V6.73021C7.28906 6.05937 7.51413 5.49938 7.96427 5.05021C8.41441 4.60104 8.9749 4.37597 9.64573 4.375H21.2001L27.7057 12.1712V28.2698C27.7057 28.4934 27.6445 28.717 27.522 28.9406C27.3995 29.1642 27.24 29.3631 27.0436 29.5371L20.0218 22.5312C19.6086 22.8171 19.2002 23.0222 18.7968 23.1467C18.3943 23.2711 17.9611 23.3333 17.4974 23.3333C16.2948 23.3333 15.2647 22.9051 14.4072 22.0485C13.5497 21.192 13.1214 20.1619 13.1224 18.9583C13.1234 17.7547 13.5516 16.7247 14.4072 15.8681C15.2627 15.0116 16.2928 14.5833 17.4974 14.5833C18.702 14.5833 19.732 15.0116 20.5876 15.8681C21.4432 16.7247 21.8714 17.7547 21.8724 18.9583C21.8724 19.461 21.8058 19.9131 21.6726 20.3146C21.5394 20.7161 21.3386 21.105 21.0703 21.4812L26.2474 26.7313V12.6875L20.487 5.83333H9.64573C9.42115 5.83333 9.21503 5.92667 9.0274 6.11333C8.83976 6.3 8.74642 6.50562 8.7474 6.73021V28.2698C8.7474 28.4934 8.84073 28.699 9.0274 28.8867C9.21406 29.0743 9.41969 29.1676 9.64427 29.1667H22.517ZM17.4974 21.875C18.2995 21.875 18.9864 21.5897 19.558 21.019C20.1297 20.4483 20.415 19.7614 20.4141 18.9583C20.4131 18.1553 20.1277 17.4689 19.558 16.8992C18.9883 16.3294 18.3014 16.0436 17.4974 16.0417C16.6934 16.0397 16.007 16.3256 15.4382 16.8992C14.8695 17.4728 14.5836 18.1592 14.5807 18.9583C14.5778 19.7575 14.8636 20.4444 15.4382 21.019C16.0128 21.5935 16.6992 21.8789 17.4974 21.875Z" fill="black"/>
</svg>
