<svg width="24" height="24" viewBox="0 0 24 24" fill="none" xmlns="http://www.w3.org/2000/svg">
<path d="M2 3.5H22M2 11.5H7.5M2 19.5H7.5" stroke="black" stroke-width="2" stroke-linecap="round"/>
<path d="M15.75 17C16.8772 17 17.9582 16.5522 18.7552 15.7552C19.5522 14.9582 20 13.8772 20 12.75C20 11.6228 19.5522 10.5418 18.7552 9.7448C17.9582 8.94777 16.8772 8.5 15.75 8.5C14.6228 8.5 13.5418 8.94777 12.7448 9.7448C11.9478 10.5418 11.5 11.6228 11.5 12.75C11.5 13.8772 11.9478 14.9582 12.7448 15.7552C13.5418 16.5522 14.6228 17 15.75 17Z" stroke="black" stroke-width="2"/>
<path d="M18.5 16L22 19.525" stroke="black" stroke-width="2" stroke-linecap="round"/>
</svg>
