<svg width="18" height="18" viewBox="0 0 18 18" fill="none" xmlns="http://www.w3.org/2000/svg">
<g clip-path="url(#clip0_3049_41)">
<path d="M12.5953 10.2003C12.7387 9.81653 12.8115 9.41 12.8103 9.00031C12.8103 8.09062 12.4489 7.21819 11.8057 6.57494C11.1624 5.93169 10.29 5.57031 9.38031 5.57031C8.97567 5.57089 8.57437 5.6437 8.19531 5.78531L9.00031 6.61531C9.12273 6.59616 9.24641 6.58613 9.37031 6.58531C10.0135 6.58397 10.6312 6.83718 11.0883 7.28966C11.5455 7.74214 11.805 8.35712 11.8103 9.00031C11.8095 9.12422 11.7995 9.24789 11.7803 9.37031L12.5953 10.2003Z" fill="#94A3B8"/>
<path d="M17.1472 8.76465C15.4622 5.64965 12.5072 3.76465 9.23719 3.76465C8.34685 3.76657 7.46248 3.91003 6.61719 4.18965L7.42219 4.99965C8.01513 4.84651 8.62479 4.76758 9.23719 4.76465C12.0522 4.76465 14.6122 6.33465 16.1372 8.97965C15.5773 9.9606 14.8357 10.826 13.9522 11.5296L14.6622 12.2396C15.6855 11.4146 16.5352 10.395 17.1622 9.23965L17.2922 8.99965L17.1472 8.76465Z" fill="#94A3B8"/>
<path d="M2.4325 2.88953L4.6625 5.11953C3.25267 6.02674 2.10058 7.28215 1.3175 8.76453L1.1875 8.99953L1.3175 9.23953C3.0025 12.3545 5.9575 14.2395 9.2275 14.2395C10.5039 14.2398 11.7638 13.9509 12.9125 13.3945L15.4125 15.8945L16.2875 15.1445L3.2875 2.14453L2.4325 2.88953ZM7.3075 7.76453L10.6325 11.0895C10.2569 11.3223 9.82436 11.4469 9.3825 11.4495C9.06146 11.4495 8.7436 11.3861 8.44719 11.2628C8.15078 11.1394 7.88168 10.9587 7.65537 10.731C7.42906 10.5033 7.25001 10.2331 7.12853 9.93597C7.00705 9.63881 6.94552 9.32056 6.9475 8.99953C6.95288 8.56278 7.07735 8.13577 7.3075 7.76453ZM6.5825 7.03953C6.11472 7.69923 5.89546 8.50318 5.96356 9.30903C6.03165 10.1149 6.3827 10.8706 6.95455 11.4425C7.5264 12.0143 8.28216 12.3654 9.08801 12.4335C9.89385 12.5016 10.6978 12.2823 11.3575 11.8145L12.1575 12.6145C11.2314 13.0105 10.2347 13.2146 9.2275 13.2145C6.4125 13.2145 3.8525 11.6445 2.3275 8.99953C3.05954 7.70378 4.1135 6.61881 5.3875 5.84953L6.5825 7.03953Z" fill="#94A3B8"/>
</g>
<defs>
<clipPath id="clip0_3049_41">
<rect width="18" height="18" fill="white"/>
</clipPath>
</defs>
</svg>
