<svg width="27" height="27" viewBox="0 0 27 27" fill="none" xmlns="http://www.w3.org/2000/svg">
<circle cx="13" cy="14" r="22" fill="#EDE9FE"/>
<path fill-rule="evenodd" clip-rule="evenodd" d="M15.1875 6.18746C15.1875 4.01286 13.4246 2.25 11.25 2.25L11.034 2.2558C8.95983 2.36797 7.31252 4.08537 7.31252 6.18746C7.31252 8.36212 9.07537 10.125 11.25 10.125L11.466 10.1191C13.5402 10.007 15.1875 8.28962 15.1875 6.18746ZM13.5 19.6875C13.5 20.7002 13.7433 21.6561 14.1747 22.5H3.375V18.45C3.375 15.1787 5.88874 12.5114 9.03778 12.3801L9.28125 12.375H13.2188C14.7731 12.375 16.1872 12.9926 17.2418 14.0021C15.0408 14.9502 13.5 17.1389 13.5 19.6875ZM19.6875 14.625C16.8916 14.625 14.625 16.8915 14.625 19.6875C14.625 22.4834 16.8916 24.75 19.6875 24.75C22.4835 24.75 24.75 22.4834 24.75 19.6875C24.75 16.8915 22.4835 14.625 19.6875 14.625ZM22.9972 17.9347L18.5626 22.3694L16.3779 20.1847L17.3722 19.1903L18.5626 20.3807L22.0029 16.9404L22.9972 17.9347Z" fill="#7C3AED"/>
</svg>
