<svg width="339" height="393" viewBox="0 0 339 393" fill="none" xmlns="http://www.w3.org/2000/svg">
<g filter="url(#filter0_d_3043_37)">
<rect x="10" y="1" width="319" height="373" rx="20" fill="#5ED1D6" fill-opacity="0.05" shape-rendering="crispEdges"/>
</g>
<path d="M179.5 76.5C180.428 76.5 181.318 76.8687 181.975 77.5251C182.631 78.1815 183 79.0717 183 80V87H200.5C201.428 87 202.318 87.3687 202.975 88.0251C203.631 88.6815 204 89.5717 204 90.5V136C204 136.928 203.631 137.819 202.975 138.475C202.318 139.131 201.428 139.5 200.5 139.5H137.5C136.572 139.5 135.682 139.131 135.025 138.475C134.369 137.819 134 136.928 134 136V90.5C134 89.5717 134.369 88.6815 135.025 88.0251C135.682 87.3687 136.572 87 137.5 87H155V80C155 79.0717 155.369 78.1815 156.025 77.5251C156.682 76.8687 157.572 76.5 158.5 76.5H179.5ZM183 94H155V132.5H183V94ZM141 94V132.5H148V94H141ZM176 83.5H162V87H176V83.5ZM190 94V132.5H197V94H190Z" fill="#1E40AF"/>
<path d="M106.862 238V217.636H120.583V221.186H111.167V226.038H119.877V229.588H111.167V234.45H120.623V238H106.862ZM123.927 238V222.727H127.964V225.422H128.143C128.461 224.527 128.991 223.821 129.733 223.304C130.476 222.787 131.364 222.528 132.398 222.528C133.446 222.528 134.337 222.79 135.073 223.314C135.809 223.831 136.299 224.534 136.545 225.422H136.704C137.015 224.547 137.579 223.848 138.394 223.324C139.216 222.794 140.187 222.528 141.307 222.528C142.733 222.528 143.889 222.982 144.778 223.891C145.672 224.792 146.12 226.071 146.12 227.729V238H141.894V228.564C141.894 227.715 141.669 227.079 141.218 226.655C140.767 226.231 140.204 226.018 139.528 226.018C138.759 226.018 138.159 226.264 137.728 226.754C137.297 227.238 137.081 227.878 137.081 228.673V238H132.975V228.474C132.975 227.725 132.76 227.129 132.329 226.685C131.904 226.241 131.344 226.018 130.648 226.018C130.178 226.018 129.753 226.138 129.376 226.376C129.004 226.608 128.709 226.937 128.491 227.361C128.272 227.778 128.162 228.269 128.162 228.832V238H123.927ZM149.466 243.727V222.727H153.642V225.293H153.831C154.016 224.882 154.285 224.464 154.636 224.04C154.994 223.609 155.458 223.251 156.028 222.966C156.605 222.674 157.321 222.528 158.176 222.528C159.29 222.528 160.317 222.82 161.258 223.403C162.2 223.98 162.952 224.852 163.515 226.018C164.079 227.179 164.361 228.634 164.361 230.384C164.361 232.087 164.086 233.526 163.535 234.699C162.992 235.866 162.249 236.75 161.308 237.354C160.373 237.95 159.326 238.249 158.166 238.249C157.344 238.249 156.645 238.113 156.068 237.841C155.498 237.569 155.031 237.228 154.666 236.817C154.301 236.399 154.023 235.978 153.831 235.554H153.702V243.727H149.466ZM153.612 230.364C153.612 231.272 153.738 232.064 153.99 232.74C154.242 233.416 154.606 233.943 155.084 234.321C155.561 234.692 156.141 234.878 156.824 234.878C157.513 234.878 158.096 234.689 158.574 234.311C159.051 233.927 159.412 233.396 159.657 232.72C159.909 232.037 160.035 231.252 160.035 230.364C160.035 229.482 159.913 228.706 159.667 228.037C159.422 227.367 159.061 226.844 158.584 226.466C158.106 226.088 157.52 225.899 156.824 225.899C156.134 225.899 155.551 226.081 155.074 226.446C154.603 226.811 154.242 227.328 153.99 227.997C153.738 228.667 153.612 229.455 153.612 230.364ZM171.42 217.636V238H167.184V217.636H171.42ZM181.714 238.298C180.169 238.298 178.834 237.97 177.707 237.314C176.587 236.651 175.722 235.73 175.112 234.55C174.502 233.363 174.197 231.988 174.197 230.423C174.197 228.846 174.502 227.467 175.112 226.287C175.722 225.1 176.587 224.179 177.707 223.523C178.834 222.86 180.169 222.528 181.714 222.528C183.258 222.528 184.591 222.86 185.711 223.523C186.838 224.179 187.706 225.1 188.316 226.287C188.926 227.467 189.231 228.846 189.231 230.423C189.231 231.988 188.926 233.363 188.316 234.55C187.706 235.73 186.838 236.651 185.711 237.314C184.591 237.97 183.258 238.298 181.714 238.298ZM181.734 235.017C182.436 235.017 183.023 234.818 183.494 234.42C183.964 234.016 184.319 233.466 184.558 232.77C184.803 232.074 184.926 231.282 184.926 230.393C184.926 229.505 184.803 228.713 184.558 228.017C184.319 227.321 183.964 226.771 183.494 226.366C183.023 225.962 182.436 225.76 181.734 225.76C181.025 225.76 180.428 225.962 179.944 226.366C179.467 226.771 179.106 227.321 178.86 228.017C178.622 228.713 178.502 229.505 178.502 230.393C178.502 231.282 178.622 232.074 178.86 232.77C179.106 233.466 179.467 234.016 179.944 234.42C180.428 234.818 181.025 235.017 181.734 235.017ZM194.108 243.727C193.571 243.727 193.067 243.684 192.597 243.598C192.133 243.518 191.748 243.416 191.443 243.29L192.398 240.128C192.895 240.28 193.343 240.363 193.74 240.376C194.145 240.39 194.493 240.297 194.784 240.098C195.083 239.899 195.325 239.561 195.51 239.084L195.759 238.438L190.28 222.727H194.735L197.896 233.943H198.056L201.247 222.727H205.732L199.796 239.651C199.511 240.473 199.123 241.188 198.632 241.798C198.148 242.415 197.535 242.889 196.793 243.22C196.05 243.558 195.155 243.727 194.108 243.727ZM214.367 238.298C212.796 238.298 211.444 237.98 210.311 237.344C209.184 236.701 208.315 235.793 207.705 234.619C207.096 233.439 206.791 232.044 206.791 230.433C206.791 228.862 207.096 227.483 207.705 226.297C208.315 225.11 209.174 224.186 210.281 223.523C211.394 222.86 212.7 222.528 214.198 222.528C215.206 222.528 216.144 222.691 217.012 223.016C217.887 223.334 218.65 223.814 219.299 224.457C219.955 225.1 220.466 225.909 220.83 226.884C221.195 227.851 221.377 228.985 221.377 230.284V231.447H208.481V228.822H217.39C217.39 228.213 217.258 227.672 216.992 227.202C216.727 226.731 216.359 226.363 215.889 226.098C215.425 225.826 214.884 225.69 214.268 225.69C213.625 225.69 213.055 225.839 212.558 226.138C212.067 226.429 211.683 226.824 211.404 227.321C211.126 227.812 210.983 228.358 210.977 228.962V231.457C210.977 232.213 211.116 232.866 211.394 233.416C211.679 233.966 212.08 234.391 212.597 234.689C213.115 234.987 213.728 235.136 214.437 235.136C214.908 235.136 215.338 235.07 215.73 234.938C216.121 234.805 216.455 234.606 216.734 234.341C217.012 234.076 217.224 233.751 217.37 233.366L221.288 233.625C221.089 234.566 220.681 235.388 220.065 236.091C219.455 236.787 218.666 237.33 217.698 237.722C216.737 238.106 215.627 238.298 214.367 238.298ZM224.142 238V222.727H228.248V225.392H228.407C228.686 224.444 229.153 223.728 229.809 223.244C230.465 222.754 231.221 222.509 232.076 222.509C232.288 222.509 232.517 222.522 232.762 222.548C233.008 222.575 233.223 222.611 233.409 222.658V226.416C233.21 226.357 232.935 226.304 232.583 226.257C232.232 226.211 231.91 226.188 231.619 226.188C230.996 226.188 230.439 226.323 229.948 226.595C229.464 226.86 229.08 227.232 228.795 227.709C228.517 228.186 228.377 228.736 228.377 229.359V238H224.142ZM123.821 249V265H121.884V249H123.821ZM129.3 257.781V265H127.456V253H129.237V254.875H129.394C129.675 254.266 130.102 253.776 130.675 253.406C131.248 253.031 131.987 252.844 132.894 252.844C133.706 252.844 134.417 253.01 135.026 253.344C135.636 253.672 136.11 254.172 136.448 254.844C136.787 255.51 136.956 256.354 136.956 257.375V265H135.112V257.5C135.112 256.557 134.868 255.823 134.378 255.297C133.888 254.766 133.216 254.5 132.362 254.5C131.774 254.5 131.248 254.628 130.784 254.883C130.326 255.138 129.964 255.51 129.698 256C129.433 256.49 129.3 257.083 129.3 257.781ZM144.856 265.25C143.856 265.25 142.974 264.997 142.208 264.492C141.442 263.982 140.843 263.263 140.411 262.336C139.979 261.404 139.763 260.302 139.763 259.031C139.763 257.771 139.979 256.677 140.411 255.75C140.843 254.823 141.445 254.107 142.216 253.602C142.987 253.096 143.877 252.844 144.888 252.844C145.669 252.844 146.286 252.974 146.739 253.234C147.198 253.49 147.547 253.781 147.786 254.109C148.031 254.432 148.221 254.698 148.356 254.906H148.513V249H150.356V265H148.575V263.156H148.356C148.221 263.375 148.028 263.651 147.778 263.984C147.528 264.312 147.172 264.607 146.708 264.867C146.244 265.122 145.627 265.25 144.856 265.25ZM145.106 263.594C145.846 263.594 146.471 263.401 146.981 263.016C147.492 262.625 147.88 262.086 148.146 261.398C148.411 260.706 148.544 259.906 148.544 259C148.544 258.104 148.414 257.32 148.153 256.648C147.893 255.971 147.507 255.445 146.997 255.07C146.487 254.69 145.856 254.5 145.106 254.5C144.325 254.5 143.674 254.701 143.153 255.102C142.638 255.497 142.25 256.036 141.989 256.719C141.734 257.396 141.606 258.156 141.606 259C141.606 259.854 141.737 260.63 141.997 261.328C142.263 262.021 142.653 262.573 143.169 262.984C143.69 263.391 144.336 263.594 145.106 263.594ZM153.989 265V253H155.833V265H153.989ZM154.927 251C154.567 251 154.257 250.878 153.997 250.633C153.742 250.388 153.614 250.094 153.614 249.75C153.614 249.406 153.742 249.112 153.997 248.867C154.257 248.622 154.567 248.5 154.927 248.5C155.286 248.5 155.593 248.622 155.849 248.867C156.109 249.112 156.239 249.406 156.239 249.75C156.239 250.094 156.109 250.388 155.849 250.633C155.593 250.878 155.286 251 154.927 251ZM169.022 253L164.585 265H162.71L158.272 253H160.272L163.585 262.562H163.71L167.022 253H169.022ZM171.456 265V253H173.3V265H171.456ZM172.394 251C172.034 251 171.724 250.878 171.464 250.633C171.209 250.388 171.081 250.094 171.081 249.75C171.081 249.406 171.209 249.112 171.464 248.867C171.724 248.622 172.034 248.5 172.394 248.5C172.753 248.5 173.06 248.622 173.315 248.867C173.576 249.112 173.706 249.406 173.706 249.75C173.706 250.094 173.576 250.388 173.315 250.633C173.06 250.878 172.753 251 172.394 251ZM181.208 265.25C180.208 265.25 179.325 264.997 178.56 264.492C177.794 263.982 177.195 263.263 176.763 262.336C176.33 261.404 176.114 260.302 176.114 259.031C176.114 257.771 176.33 256.677 176.763 255.75C177.195 254.823 177.797 254.107 178.567 253.602C179.338 253.096 180.229 252.844 181.239 252.844C182.021 252.844 182.638 252.974 183.091 253.234C183.549 253.49 183.898 253.781 184.138 254.109C184.382 254.432 184.573 254.698 184.708 254.906H184.864V249H186.708V265H184.927V263.156H184.708C184.573 263.375 184.38 263.651 184.13 263.984C183.88 264.312 183.523 264.607 183.06 264.867C182.596 265.122 181.979 265.25 181.208 265.25ZM181.458 263.594C182.198 263.594 182.823 263.401 183.333 263.016C183.843 262.625 184.231 262.086 184.497 261.398C184.763 260.706 184.896 259.906 184.896 259C184.896 258.104 184.765 257.32 184.505 256.648C184.244 255.971 183.859 255.445 183.349 255.07C182.838 254.69 182.208 254.5 181.458 254.5C180.677 254.5 180.026 254.701 179.505 255.102C178.989 255.497 178.601 256.036 178.341 256.719C178.086 257.396 177.958 258.156 177.958 259C177.958 259.854 178.088 260.63 178.349 261.328C178.614 262.021 179.005 262.573 179.521 262.984C180.041 263.391 180.687 263.594 181.458 263.594ZM197.903 260.094V253H199.747V265H197.903V262.969H197.778C197.497 263.578 197.06 264.096 196.466 264.523C195.872 264.945 195.122 265.156 194.216 265.156C193.466 265.156 192.799 264.992 192.216 264.664C191.632 264.331 191.174 263.831 190.841 263.164C190.507 262.492 190.341 261.646 190.341 260.625V253H192.185V260.5C192.185 261.375 192.429 262.073 192.919 262.594C193.414 263.115 194.044 263.375 194.81 263.375C195.268 263.375 195.734 263.258 196.208 263.023C196.687 262.789 197.088 262.43 197.411 261.945C197.739 261.461 197.903 260.844 197.903 260.094ZM206.655 265.281C205.895 265.281 205.205 265.138 204.585 264.852C203.965 264.56 203.473 264.141 203.108 263.594C202.744 263.042 202.562 262.375 202.562 261.594C202.562 260.906 202.697 260.349 202.968 259.922C203.239 259.49 203.601 259.151 204.054 258.906C204.507 258.661 205.007 258.479 205.554 258.359C206.106 258.234 206.66 258.135 207.218 258.063C207.947 257.969 208.538 257.898 208.991 257.852C209.45 257.799 209.783 257.714 209.991 257.594C210.205 257.474 210.312 257.266 210.312 256.969V256.906C210.312 256.135 210.101 255.536 209.679 255.109C209.262 254.682 208.629 254.469 207.78 254.469C206.9 254.469 206.21 254.661 205.71 255.047C205.21 255.432 204.858 255.844 204.655 256.281L202.905 255.656C203.218 254.927 203.634 254.359 204.155 253.953C204.681 253.542 205.254 253.255 205.874 253.094C206.499 252.927 207.114 252.844 207.718 252.844C208.103 252.844 208.546 252.891 209.046 252.984C209.551 253.073 210.038 253.258 210.507 253.539C210.981 253.82 211.374 254.245 211.687 254.812C211.999 255.38 212.155 256.141 212.155 257.094V265H210.312V263.375H210.218C210.093 263.635 209.884 263.914 209.593 264.211C209.301 264.508 208.913 264.76 208.429 264.969C207.944 265.177 207.353 265.281 206.655 265.281ZM206.937 263.625C207.666 263.625 208.28 263.482 208.78 263.195C209.285 262.909 209.666 262.539 209.921 262.086C210.181 261.633 210.312 261.156 210.312 260.656V258.969C210.233 259.062 210.062 259.148 209.796 259.227C209.535 259.299 209.233 259.365 208.89 259.422C208.551 259.474 208.22 259.521 207.897 259.562C207.58 259.599 207.322 259.63 207.124 259.656C206.645 259.719 206.197 259.82 205.78 259.961C205.369 260.096 205.035 260.302 204.78 260.578C204.53 260.849 204.405 261.219 204.405 261.687C204.405 262.328 204.642 262.812 205.116 263.141C205.595 263.464 206.202 263.625 206.937 263.625ZM217.364 249V265H215.521V249H217.364Z" fill="black"/>
<defs>
<filter id="filter0_d_3043_37" x="0" y="0" width="339" height="393" filterUnits="userSpaceOnUse" color-interpolation-filters="sRGB">
<feFlood flood-opacity="0" result="BackgroundImageFix"/>
<feColorMatrix in="SourceAlpha" type="matrix" values="0 0 0 0 0 0 0 0 0 0 0 0 0 0 0 0 0 0 127 0" result="hardAlpha"/>
<feOffset dy="9"/>
<feGaussianBlur stdDeviation="5"/>
<feComposite in2="hardAlpha" operator="out"/>
<feColorMatrix type="matrix" values="0 0 0 0 0 0 0 0 0 0 0 0 0 0 0 0 0 0 0.12 0"/>
<feBlend mode="normal" in2="BackgroundImageFix" result="effect1_dropShadow_3043_37"/>
<feBlend mode="normal" in="SourceGraphic" in2="effect1_dropShadow_3043_37" result="shape"/>
</filter>
</defs>
</svg>
