<svg width="17" height="17" viewBox="0 0 17 17" fill="none" xmlns="http://www.w3.org/2000/svg">
<path d="M10.6224 2.125C10.8103 2.125 10.9904 2.19963 11.1233 2.33247C11.2561 2.4653 11.3307 2.64547 11.3307 2.83333V4.25H14.8724C15.0603 4.25 15.2404 4.32463 15.3733 4.45747C15.5061 4.5903 15.5807 4.77047 15.5807 4.95833V14.1667C15.5807 14.3545 15.5061 14.5347 15.3733 14.6675C15.2404 14.8004 15.0603 14.875 14.8724 14.875H2.1224C1.93453 14.875 1.75437 14.8004 1.62153 14.6675C1.48869 14.5347 1.41406 14.3545 1.41406 14.1667V4.95833C1.41406 4.77047 1.48869 4.5903 1.62153 4.45747C1.75437 4.32463 1.93453 4.25 2.1224 4.25H5.66406V2.83333C5.66406 2.64547 5.73869 2.4653 5.87153 2.33247C6.00437 2.19963 6.18453 2.125 6.3724 2.125H10.6224ZM11.3307 5.66667H5.66406V13.4583H11.3307V5.66667ZM2.83073 5.66667V13.4583H4.2474V5.66667H2.83073ZM9.91406 3.54167H7.08073V4.25H9.91406V3.54167ZM12.7474 5.66667V13.4583H14.1641V5.66667H12.7474Z" fill="#1E40AF"/>
</svg>
