<svg width="339" height="393" viewBox="0 0 339 393" fill="none" xmlns="http://www.w3.org/2000/svg">
<g filter="url(#filter0_d_3043_36)">
<rect x="10" y="1" width="319" height="373" rx="20" fill="#5ED1D6" fill-opacity="0.05" shape-rendering="crispEdges"/>
</g>
<path d="M169.5 108C172.745 108 175.917 107.025 178.615 105.198C181.313 103.371 183.416 100.775 184.657 97.7371C185.899 94.6993 186.224 91.3566 185.591 88.1316C184.958 84.9067 183.395 81.9444 181.101 79.6194C178.807 77.2943 175.883 75.7109 172.701 75.0695C169.518 74.428 166.219 74.7572 163.222 76.0155C160.224 77.2738 157.661 79.4047 155.859 82.1387C154.056 84.8726 153.094 88.0869 153.094 91.375C153.094 95.7842 154.822 100.013 157.899 103.131C160.976 106.248 165.149 108 169.5 108ZM169.5 112.75C159.331 112.75 139.031 119.115 139.031 131.75V141.25H199.969V131.75C199.969 119.115 179.669 112.75 169.5 112.75Z" fill="#1E40AF"/>
<path d="M102.374 224.636H106.63V238.835C106.63 240.148 106.335 241.288 105.745 242.256C105.162 243.223 104.35 243.969 103.309 244.493C102.268 245.017 101.059 245.278 99.6799 245.278C98.4535 245.278 97.3399 245.063 96.339 244.632C95.3446 244.195 94.5558 243.532 93.9725 242.643C93.3891 241.749 93.1008 240.625 93.1074 239.273H97.3929C97.4062 239.81 97.5156 240.27 97.7211 240.655C97.9332 241.033 98.2215 241.324 98.5861 241.53C98.9573 241.729 99.3948 241.828 99.8986 241.828C100.429 241.828 100.876 241.715 101.241 241.49C101.612 241.258 101.894 240.92 102.086 240.476C102.278 240.032 102.374 239.485 102.374 238.835V224.636ZM117.011 245.298C115.466 245.298 114.131 244.97 113.004 244.314C111.883 243.651 111.018 242.73 110.409 241.55C109.799 240.363 109.494 238.988 109.494 237.423C109.494 235.846 109.799 234.467 110.409 233.287C111.018 232.1 111.883 231.179 113.004 230.523C114.131 229.86 115.466 229.528 117.011 229.528C118.555 229.528 119.888 229.86 121.008 230.523C122.135 231.179 123.003 232.1 123.613 233.287C124.223 234.467 124.528 235.846 124.528 237.423C124.528 238.988 124.223 240.363 123.613 241.55C123.003 242.73 122.135 243.651 121.008 244.314C119.888 244.97 118.555 245.298 117.011 245.298ZM117.031 242.017C117.733 242.017 118.32 241.818 118.791 241.42C119.261 241.016 119.616 240.466 119.855 239.77C120.1 239.074 120.222 238.282 120.222 237.393C120.222 236.505 120.1 235.713 119.855 235.017C119.616 234.321 119.261 233.771 118.791 233.366C118.32 232.962 117.733 232.76 117.031 232.76C116.321 232.76 115.725 232.962 115.241 233.366C114.764 233.771 114.402 234.321 114.157 235.017C113.919 235.713 113.799 236.505 113.799 237.393C113.799 238.282 113.919 239.074 114.157 239.77C114.402 240.466 114.764 241.016 115.241 241.42C115.725 241.818 116.321 242.017 117.031 242.017ZM127.362 245V224.636H131.597V232.293H131.727C131.912 231.882 132.181 231.464 132.532 231.04C132.89 230.609 133.354 230.251 133.924 229.966C134.501 229.674 135.217 229.528 136.072 229.528C137.186 229.528 138.213 229.82 139.154 230.403C140.096 230.98 140.848 231.852 141.411 233.018C141.975 234.179 142.257 235.634 142.257 237.384C142.257 239.087 141.981 240.526 141.431 241.699C140.888 242.866 140.145 243.75 139.204 244.354C138.269 244.95 137.222 245.249 136.062 245.249C135.24 245.249 134.541 245.113 133.964 244.841C133.394 244.569 132.927 244.228 132.562 243.817C132.197 243.399 131.919 242.978 131.727 242.554H131.538V245H127.362ZM131.508 237.364C131.508 238.272 131.634 239.064 131.886 239.74C132.138 240.416 132.502 240.943 132.98 241.321C133.457 241.692 134.037 241.878 134.72 241.878C135.409 241.878 135.992 241.689 136.47 241.311C136.947 240.927 137.308 240.396 137.553 239.72C137.805 239.037 137.931 238.252 137.931 237.364C137.931 236.482 137.809 235.706 137.563 235.037C137.318 234.367 136.957 233.844 136.48 233.466C136.002 233.088 135.416 232.899 134.72 232.899C134.03 232.899 133.447 233.081 132.97 233.446C132.499 233.811 132.138 234.328 131.886 234.997C131.634 235.667 131.508 236.455 131.508 237.364ZM162.69 230.493C162.61 229.691 162.269 229.068 161.666 228.624C161.062 228.179 160.244 227.957 159.21 227.957C158.507 227.957 157.914 228.057 157.43 228.256C156.946 228.448 156.575 228.716 156.316 229.061C156.064 229.406 155.938 229.797 155.938 230.234C155.925 230.599 156.001 230.917 156.167 231.189C156.339 231.461 156.575 231.696 156.873 231.895C157.171 232.087 157.516 232.256 157.907 232.402C158.298 232.541 158.716 232.661 159.16 232.76L160.99 233.197C161.878 233.396 162.693 233.661 163.436 233.993C164.178 234.324 164.821 234.732 165.365 235.216C165.908 235.7 166.329 236.27 166.627 236.926C166.932 237.582 167.088 238.335 167.095 239.183C167.088 240.429 166.77 241.51 166.14 242.425C165.517 243.333 164.615 244.039 163.436 244.543C162.262 245.04 160.847 245.288 159.19 245.288C157.546 245.288 156.114 245.036 154.894 244.533C153.681 244.029 152.733 243.283 152.051 242.295C151.374 241.301 151.02 240.071 150.987 238.607H155.153C155.199 239.289 155.395 239.859 155.74 240.317C156.091 240.768 156.558 241.109 157.142 241.341C157.731 241.566 158.398 241.679 159.14 241.679C159.869 241.679 160.502 241.573 161.039 241.361C161.583 241.149 162.004 240.854 162.302 240.476C162.6 240.098 162.749 239.664 162.749 239.173C162.749 238.716 162.614 238.331 162.342 238.02C162.077 237.708 161.686 237.443 161.169 237.224C160.658 237.006 160.032 236.807 159.289 236.628L157.072 236.071C155.355 235.653 153.999 235 153.005 234.112C152.011 233.224 151.517 232.027 151.524 230.523C151.517 229.29 151.845 228.213 152.508 227.291C153.177 226.37 154.096 225.651 155.262 225.134C156.429 224.616 157.755 224.358 159.24 224.358C160.751 224.358 162.07 224.616 163.197 225.134C164.33 225.651 165.212 226.37 165.842 227.291C166.472 228.213 166.796 229.28 166.816 230.493H162.69ZM176.871 245.298C175.3 245.298 173.948 244.98 172.814 244.344C171.688 243.701 170.819 242.793 170.209 241.619C169.599 240.439 169.295 239.044 169.295 237.433C169.295 235.862 169.599 234.483 170.209 233.297C170.819 232.11 171.678 231.186 172.785 230.523C173.898 229.86 175.204 229.528 176.702 229.528C177.71 229.528 178.648 229.691 179.516 230.016C180.391 230.334 181.153 230.814 181.803 231.457C182.459 232.1 182.97 232.909 183.334 233.884C183.699 234.851 183.881 235.985 183.881 237.284V238.447H170.985V235.822H179.894C179.894 235.213 179.761 234.672 179.496 234.202C179.231 233.731 178.863 233.363 178.393 233.098C177.929 232.826 177.388 232.69 176.772 232.69C176.129 232.69 175.559 232.839 175.062 233.138C174.571 233.429 174.187 233.824 173.908 234.321C173.63 234.812 173.487 235.358 173.481 235.962V238.457C173.481 239.213 173.62 239.866 173.898 240.416C174.183 240.966 174.584 241.391 175.101 241.689C175.618 241.987 176.232 242.136 176.941 242.136C177.412 242.136 177.842 242.07 178.233 241.938C178.625 241.805 178.959 241.606 179.238 241.341C179.516 241.076 179.728 240.751 179.874 240.366L183.792 240.625C183.593 241.566 183.185 242.388 182.569 243.091C181.959 243.787 181.17 244.33 180.202 244.722C179.241 245.106 178.131 245.298 176.871 245.298ZM193.606 245.298C192.035 245.298 190.682 244.98 189.549 244.344C188.422 243.701 187.554 242.793 186.944 241.619C186.334 240.439 186.029 239.044 186.029 237.433C186.029 235.862 186.334 234.483 186.944 233.297C187.554 232.11 188.412 231.186 189.519 230.523C190.633 229.86 191.939 229.528 193.437 229.528C194.444 229.528 195.382 229.691 196.251 230.016C197.126 230.334 197.888 230.814 198.537 231.457C199.194 232.1 199.704 232.909 200.069 233.884C200.433 234.851 200.616 235.985 200.616 237.284V238.447H187.719V235.822H196.628C196.628 235.213 196.496 234.672 196.231 234.202C195.965 233.731 195.598 233.363 195.127 233.098C194.663 232.826 194.123 232.69 193.506 232.69C192.863 232.69 192.293 232.839 191.796 233.138C191.305 233.429 190.921 233.824 190.643 234.321C190.364 234.812 190.222 235.358 190.215 235.962V238.457C190.215 239.213 190.354 239.866 190.633 240.416C190.918 240.966 191.319 241.391 191.836 241.689C192.353 241.987 192.966 242.136 193.675 242.136C194.146 242.136 194.577 242.07 194.968 241.938C195.359 241.805 195.694 241.606 195.972 241.341C196.251 241.076 196.463 240.751 196.608 240.366L200.526 240.625C200.327 241.566 199.92 242.388 199.303 243.091C198.693 243.787 197.904 244.33 196.937 244.722C195.975 245.106 194.865 245.298 193.606 245.298ZM207.218 240.605L207.228 235.524H207.844L212.736 229.727H217.599L211.026 237.403H210.022L207.218 240.605ZM203.38 245V224.636H207.616V245H203.38ZM212.925 245L208.431 238.348L211.255 235.355L217.887 245H212.925ZM226.008 245.298C224.437 245.298 223.085 244.98 221.951 244.344C220.824 243.701 219.956 242.793 219.346 241.619C218.736 240.439 218.431 239.044 218.431 237.433C218.431 235.862 218.736 234.483 219.346 233.297C219.956 232.11 220.814 231.186 221.921 230.523C223.035 229.86 224.341 229.528 225.839 229.528C226.847 229.528 227.785 229.691 228.653 230.016C229.528 230.334 230.29 230.814 230.94 231.457C231.596 232.1 232.106 232.909 232.471 233.884C232.836 234.851 233.018 235.985 233.018 237.284V238.447H220.122V235.822H229.031C229.031 235.213 228.898 234.672 228.633 234.202C228.368 233.731 228 233.363 227.529 233.098C227.065 232.826 226.525 232.69 225.909 232.69C225.266 232.69 224.695 232.839 224.198 233.138C223.708 233.429 223.323 233.824 223.045 234.321C222.767 234.812 222.624 235.358 222.617 235.962V238.457C222.617 239.213 222.757 239.866 223.035 240.416C223.32 240.966 223.721 241.391 224.238 241.689C224.755 241.987 225.368 242.136 226.078 242.136C226.548 242.136 226.979 242.07 227.37 241.938C227.761 241.805 228.096 241.606 228.374 241.341C228.653 241.076 228.865 240.751 229.011 240.366L232.928 240.625C232.73 241.566 232.322 242.388 231.705 243.091C231.096 243.787 230.307 244.33 229.339 244.722C228.378 245.106 227.267 245.298 226.008 245.298ZM235.782 245V229.727H239.889V232.392H240.048C240.326 231.444 240.794 230.728 241.45 230.244C242.106 229.754 242.862 229.509 243.717 229.509C243.929 229.509 244.158 229.522 244.403 229.548C244.648 229.575 244.864 229.611 245.049 229.658V233.416C244.85 233.357 244.575 233.304 244.224 233.257C243.873 233.211 243.551 233.188 243.259 233.188C242.636 233.188 242.079 233.323 241.589 233.595C241.105 233.86 240.721 234.232 240.436 234.709C240.157 235.186 240.018 235.736 240.018 236.359V245H235.782Z" fill="black"/>
<defs>
<filter id="filter0_d_3043_36" x="0" y="0" width="339" height="393" filterUnits="userSpaceOnUse" color-interpolation-filters="sRGB">
<feFlood flood-opacity="0" result="BackgroundImageFix"/>
<feColorMatrix in="SourceAlpha" type="matrix" values="0 0 0 0 0 0 0 0 0 0 0 0 0 0 0 0 0 0 127 0" result="hardAlpha"/>
<feOffset dy="9"/>
<feGaussianBlur stdDeviation="5"/>
<feComposite in2="hardAlpha" operator="out"/>
<feColorMatrix type="matrix" values="0 0 0 0 0 0 0 0 0 0 0 0 0 0 0 0 0 0 0.12 0"/>
<feBlend mode="normal" in2="BackgroundImageFix" result="effect1_dropShadow_3043_36"/>
<feBlend mode="normal" in="SourceGraphic" in2="effect1_dropShadow_3043_36" result="shape"/>
</filter>
</defs>
</svg>
