<svg width="16" height="16" viewBox="0 0 16 16" fill="none" xmlns="http://www.w3.org/2000/svg">
<path d="M8 8.66797C9.10457 8.66797 10 7.77254 10 6.66797C10 5.5634 9.10457 4.66797 8 4.66797C6.89543 4.66797 6 5.5634 6 6.66797C6 7.77254 6.89543 8.66797 8 8.66797Z" stroke="#1E40AF" stroke-linecap="round" stroke-linejoin="round"/>
<path d="M7.9974 1.33398C6.58291 1.33398 5.22635 1.89589 4.22616 2.89608C3.22597 3.89628 2.66406 5.25283 2.66406 6.66732C2.66406 7.92865 2.93206 8.75398 3.66406 9.66732L7.9974 14.6673L12.3307 9.66732C13.0627 8.75398 13.3307 7.92865 13.3307 6.66732C13.3307 5.25283 12.7688 3.89628 11.7686 2.89608C10.7684 1.89589 9.41188 1.33398 7.9974 1.33398Z" stroke="#1E40AF" stroke-linecap="round" stroke-linejoin="round"/>
</svg>
