<svg width="176" height="29" viewBox="0 0 176 29" fill="none" xmlns="http://www.w3.org/2000/svg">
<mask id="mask0_3050_48" style="mask-type:luminance" maskUnits="userSpaceOnUse" x="0" y="0" width="29" height="29">
<path d="M0 0H28.4176V28.96H0V0Z" fill="white"/>
</mask>
<g mask="url(#mask0_3050_48)">
<path d="M14.3649 22.3251C14.2135 22.0988 13.9503 21.9518 13.6601 21.931L11.6846 21.7896C10.4947 21.7048 9.42302 21.0487 8.8882 20.0777L8.65396 19.6553C8.48813 19.3537 8.48398 18.9936 8.6664 18.7013C8.85711 18.3997 9.19707 18.2149 9.57641 18.2036H11.5934C10.9466 17.2741 9.78163 16.7518 8.57519 16.8555L6.51264 17.029C5.63165 17.1044 4.83772 16.552 4.67396 15.7582C4.55373 15.1699 4.49155 14.5647 4.49155 13.9444C4.49155 10.8033 6.10842 8.00536 8.62702 6.2029C6.13122 7.69803 4.19097 9.89454 3.14208 12.4851C4.08526 6.24626 9.97027 1.44034 17.0887 1.44034C21.4957 1.44034 25.428 3.28239 28.0088 6.16519C25.2663 2.46789 20.623 0.0357015 15.3557 0.0225035C6.92101 0.00364956 0.0202655 6.25381 0.00782774 13.9237C0.00368218 16.6236 0.845286 19.1444 2.30462 21.2806C2.33571 21.3258 2.36473 21.3711 2.39583 21.4163L4.43972 21.1015C5.35181 20.9601 6.10428 21.7632 5.79334 22.557C5.78505 22.5777 5.77883 22.5891 5.77883 22.5891C7.09513 23.0246 6.87333 24.1898 6.87333 24.1898C8.03416 24.6724 7.55532 25.6661 7.55532 25.6661C7.96575 25.8207 8.11086 26.1223 8.14817 26.2223C8.16683 26.2732 8.18756 26.3222 8.20829 26.3712L9.00429 28.2264C9.1411 28.5451 9.55983 28.8053 9.93503 28.8053C10.4097 28.8053 10.7393 28.3735 10.5714 27.97L10.2004 27.0707L9.70493 25.8697C9.66969 25.7848 9.73188 25.6924 9.83345 25.6868C9.89979 25.683 9.95783 25.7207 9.98478 25.7773L10.6357 27.2046L11.1187 28.2604C11.2845 28.6243 11.7219 28.8317 12.1385 28.7223C12.636 28.5903 12.8848 28.0832 12.6588 27.6571L11.4648 25.4134C11.4151 25.3173 11.4835 25.2041 11.6017 25.1947C11.668 25.189 11.7343 25.2211 11.7654 25.2758L13.2185 27.7362L13.3989 28.0417C13.5751 28.3433 13.9648 28.4998 14.3213 28.3924C14.5991 28.3094 14.7836 28.0982 14.8313 27.8588C14.8623 27.7136 14.8416 27.559 14.7608 27.4157L13.6227 25.4115C13.573 25.3229 13.6103 25.2098 13.7119 25.1721C13.801 25.1381 13.9005 25.174 13.944 25.2494L15.2293 27.4553C15.3329 27.6344 15.4863 27.7721 15.6687 27.8626C15.9693 28.0153 16.3424 28.036 16.6762 27.8927C16.7404 27.8663 16.7985 27.8324 16.8544 27.7966C17.3084 27.4949 17.4514 26.9161 17.1467 26.4617L14.3649 22.3251Z" fill="#003479"/>
</g>
<path d="M38.391 22.5652V8.16062H32.9766V5.67188H47.2299V8.16062H41.7906V22.5652H38.391Z" fill="#003479"/>
<path d="M49.6641 22.5645V10.5959H52.6905L53.0056 12.8358C53.4865 12.0665 54.1353 11.4537 54.9541 10.9956C55.7771 10.5337 56.7472 10.3018 57.8645 10.3018V13.5598H56.911C56.1647 13.5598 55.4973 13.6653 54.9127 13.8765C54.3323 14.0877 53.8783 14.4497 53.5529 14.9625C53.2253 15.4753 53.0636 16.1918 53.0636 17.1119V22.5645H49.6641Z" fill="#003479"/>
<path d="M62.0055 8.73306C61.3857 8.73306 60.8778 8.56526 60.4798 8.22777C60.0818 7.89216 59.8828 7.46606 59.8828 6.95323C59.8828 6.43662 60.0818 6.01429 60.4798 5.68623C60.8778 5.35439 61.3857 5.18848 62.0055 5.18848C62.6232 5.18848 63.1331 5.35439 63.5311 5.68623C63.9291 6.01429 64.1281 6.43662 64.1281 6.95323C64.1281 7.46606 63.9291 7.89216 63.5311 8.22777C63.1331 8.56526 62.6232 8.73306 62.0055 8.73306ZM60.3057 22.5645V10.5959H63.7053V22.5645H60.3057Z" fill="#003479"/>
<path d="M75.7479 22.8513C73.874 22.8513 72.2613 22.4874 70.9139 21.7577C69.5706 21.0243 68.5362 20.0043 67.8128 18.6958C67.0873 17.3836 66.7266 15.8658 66.7266 14.1406C66.7266 12.4211 67.0873 10.9034 67.8128 9.58547C68.5362 8.2638 69.5706 7.23247 70.9139 6.49339C72.2613 5.75431 73.874 5.38477 75.7479 5.38477C77.9742 5.38477 79.7984 5.88817 81.2204 6.8931C82.6466 7.89991 83.5358 9.3102 83.8903 11.124H80.1508C79.9228 10.2095 79.4335 9.4912 78.6831 8.96706C77.9307 8.4448 76.9357 8.18272 75.6981 8.18272C73.9776 8.18272 72.6323 8.71441 71.6601 9.77402C70.6858 10.8355 70.2008 12.291 70.2008 14.1406C70.2008 15.9921 70.6858 17.4439 71.6601 18.4997C72.6323 19.5518 73.9776 20.0759 75.6981 20.0759C76.9357 20.0759 77.9307 19.8327 78.6831 19.3444C79.4335 18.8523 79.9228 18.1717 80.1508 17.3006H83.8903C83.5358 19.0408 82.6466 20.4002 81.2204 21.3806C79.7984 22.3611 77.9742 22.8513 75.7479 22.8513Z" fill="#003479"/>
<path d="M93.1239 22.8511C91.847 22.8511 90.6986 22.5871 89.6829 22.0592C88.6651 21.5275 87.8608 20.7903 87.27 19.8495C86.6772 18.9106 86.3828 17.8189 86.3828 16.5764C86.3828 15.3396 86.6813 14.2517 87.2783 13.3109C87.8795 12.3719 88.69 11.6347 89.7078 11.1012C90.7235 10.5695 91.8719 10.3018 93.1488 10.3018C94.4029 10.3018 95.5389 10.5695 96.5567 11.1012C97.5724 11.6347 98.3767 12.3719 98.9696 13.3109C99.5603 14.2517 99.8568 15.3396 99.8568 16.5764C99.8568 17.8189 99.5603 18.9106 98.9696 19.8495C98.3767 20.7903 97.5683 21.5275 96.5401 22.0592C95.5161 22.5871 94.3781 22.8511 93.1239 22.8511ZM93.1239 20.1738C94.007 20.1738 94.7761 19.8721 95.429 19.2688C96.0799 18.6655 96.4074 17.768 96.4074 16.5764C96.4074 15.3905 96.0799 14.4949 95.429 13.8916C94.7761 13.2883 94.0153 12.9866 93.1488 12.9866C92.2471 12.9866 91.4739 13.2883 90.8271 13.8916C90.1804 14.4949 89.857 15.3905 89.857 16.5764C89.857 17.768 90.1804 18.6655 90.8271 19.2688C91.4739 19.8721 92.2388 20.1738 93.1239 20.1738Z" fill="#003479"/>
<path d="M102.883 22.5645V10.5959H105.884L106.15 12.6246C106.552 11.9157 107.139 11.3538 107.908 10.9353C108.681 10.5129 109.587 10.3018 110.627 10.3018C112.257 10.3018 113.523 10.7693 114.425 11.7045C115.324 12.6397 115.776 14.0085 115.776 15.8072V22.5645H112.385V16.0938C112.385 15.0681 112.153 14.2819 111.689 13.7332C111.228 13.1864 110.513 12.9112 109.541 12.9112C108.583 12.9112 107.802 13.2185 107.194 13.8313C106.585 14.4402 106.282 15.2925 106.282 16.3879V22.5645H102.883Z" fill="#003479"/>
<path d="M119.016 22.5645V10.5959H122.017L122.283 12.6246C122.685 11.9157 123.271 11.3538 124.04 10.9353C124.814 10.5129 125.719 10.3018 126.76 10.3018C128.389 10.3018 129.656 10.7693 130.558 11.7045C131.457 12.6397 131.909 14.0085 131.909 15.8072V22.5645H128.518V16.0938C128.518 15.0681 128.286 14.2819 127.821 13.7332C127.361 13.1864 126.646 12.9112 125.674 12.9112C124.716 12.9112 123.935 13.2185 123.327 13.8313C122.718 14.4402 122.415 15.2925 122.415 16.3879V22.5645H119.016Z" fill="#003479"/>
<path d="M141.534 22.8511C140.208 22.8511 139.03 22.5947 138.002 22.0818C136.978 21.569 136.174 20.845 135.589 19.9098C135.009 18.9747 134.719 17.8962 134.719 16.6745C134.719 15.4376 135.005 14.3365 135.581 13.3712C136.155 12.4059 136.951 11.6555 137.969 11.1163C138.985 10.5733 140.183 10.3018 141.559 10.3018C142.853 10.3018 143.993 10.5619 144.984 11.0785C145.973 11.5914 146.746 12.2965 147.306 13.1902C147.863 14.0801 148.143 15.0737 148.143 16.1692C148.143 16.3464 148.137 16.5312 148.126 16.7273C148.12 16.9196 148.11 17.1194 148.093 17.3306H138.085C138.156 18.262 138.516 18.9935 139.163 19.5252C139.81 20.0531 140.591 20.3171 141.51 20.3171C142.2 20.3171 142.778 20.1776 143.243 19.8948C143.711 19.6138 144.063 19.2499 144.296 18.8012H147.745C147.496 19.5554 147.084 20.2454 146.509 20.8676C145.933 21.4861 145.226 21.9725 144.387 22.3232C143.545 22.6739 142.596 22.8511 141.534 22.8511ZM141.559 12.8131C140.73 12.8131 139.996 13.0281 139.362 13.4542C138.726 13.8822 138.319 14.5307 138.143 15.3999H144.694C144.638 14.6118 144.316 13.9821 143.732 13.5145C143.151 13.0469 142.426 12.8131 141.559 12.8131Z" fill="#003479"/>
<path d="M157.46 22.8511C156.11 22.8511 154.922 22.5871 153.894 22.0592C152.87 21.5275 152.064 20.7884 151.473 19.842C150.88 18.8917 150.586 17.8038 150.586 16.5764C150.586 15.3547 150.88 14.2724 151.473 13.326C152.064 12.3757 152.87 11.6347 153.894 11.1012C154.922 10.5695 156.11 10.3018 157.46 10.3018C159.139 10.3018 160.555 10.7015 161.705 11.5009C162.853 12.2965 163.587 13.3938 163.902 14.7966H160.32C160.142 14.214 159.792 13.7596 159.267 13.4315C158.747 13.0997 158.133 12.9338 157.427 12.9338C156.492 12.9338 155.696 13.2562 155.039 13.8991C154.386 14.5439 154.06 15.4357 154.06 16.5764C154.06 17.7228 154.386 18.6183 155.039 19.2613C155.696 19.9061 156.492 20.2266 157.427 20.2266C158.133 20.2266 158.747 20.0663 159.267 19.7439C159.792 19.4234 160.142 18.9634 160.32 18.3638H163.902C163.587 19.7175 162.853 20.8035 161.705 21.6218C160.555 22.442 159.139 22.8511 157.46 22.8511Z" fill="#003479"/>
<path d="M172.785 22.5652C171.408 22.5652 170.301 22.2616 169.468 21.6526C168.639 21.0399 168.224 19.952 168.224 18.3871V13.1758H165.969V10.5965H168.224L168.622 7.38379H171.615V10.5965H175.173V13.1758H171.615V18.4172C171.615 18.9961 171.752 19.3939 172.03 19.6088C172.306 19.8257 172.778 19.9331 173.448 19.9331H175.098V22.5652H172.785Z" fill="#003479"/>
</svg>
