<svg width="44" height="45" viewBox="0 0 44 45" fill="none" xmlns="http://www.w3.org/2000/svg">
<mask id="mask0_798_14" style="mask-type:luminance" maskUnits="userSpaceOnUse" x="12" y="24" width="32" height="19">
<path d="M12.6641 24.1396H43.6212V42.873H12.6641V24.1396Z" fill="white"/>
</mask>
<g mask="url(#mask0_798_14)">
<path d="M35.5324 35.1545C36.9046 32.804 37.6909 30.0848 37.6909 27.184C37.6909 26.2239 37.6042 25.2843 37.4397 24.374C36.7731 27.9919 34.8089 31.1678 32.0346 33.4216C30.4292 34.7242 28.0375 34.4608 26.7819 32.8304L24.435 29.7891C24.0464 29.2827 23.4365 28.9842 22.7878 28.9842H13.8519C13.8489 28.9842 13.8489 28.9842 13.8459 28.9842C13.2361 28.9871 12.8414 29.6194 13.1165 30.1521L13.4722 30.8458C14.1329 32.1366 15.4334 32.9943 16.9043 33.1055L17.4334 33.1465L19.7504 33.325C20.4051 33.3777 20.997 33.7319 21.3408 34.2822L22.3932 35.9653L22.9791 36.9078L26.2766 42.1853C26.3364 42.2819 26.4082 42.3639 26.4919 42.4312C26.734 42.6302 27.0629 42.7122 27.3798 42.6361C27.3828 42.6332 27.3828 42.6332 27.3858 42.6332C35.936 40.5667 42.525 33.6236 43.8913 24.9887C42.6924 29.4174 39.6102 33.0967 35.5324 35.1545Z" fill="#00C2CB"/>
</g>
<mask id="mask1_798_14" style="mask-type:luminance" maskUnits="userSpaceOnUse" x="0" y="0" width="41" height="45">
<path d="M0 0H40.9842V44.96H0V0Z" fill="white"/>
</mask>
<g mask="url(#mask1_798_14)">
<path d="M20.7137 34.6597C20.4954 34.3084 20.1158 34.0801 19.6972 34.0479L16.8482 33.8284C15.1321 33.6967 13.5865 32.6781 12.8152 31.1706L12.4774 30.5149C12.2382 30.0466 12.2322 29.4875 12.4953 29.0338C12.7704 28.5655 13.2607 28.2787 13.8078 28.2611H16.7166C15.7839 26.818 14.1037 26.0072 12.3638 26.1682L9.38915 26.4375C8.11857 26.5546 6.97356 25.697 6.73739 24.4647C6.56399 23.5514 6.4743 22.6118 6.4743 21.6488C6.4743 16.7723 8.80618 12.4285 12.4385 9.6302C8.83906 11.9514 6.04081 15.3614 4.52808 19.3832C5.88835 9.69752 14.3758 2.23639 24.642 2.23639C30.9979 2.23639 36.6691 5.09615 40.3911 9.57166C36.4359 3.83165 29.7392 0.0557121 22.1427 0.0352223C9.9781 0.00595184 0.0257724 9.70923 0.00783448 21.6166C0.0018557 25.8082 1.21563 29.7217 3.32029 33.0381C3.36514 33.1083 3.40699 33.1786 3.45183 33.2488L6.39956 32.76C7.71498 32.5405 8.8002 33.7874 8.35176 35.0197C8.3398 35.0519 8.33083 35.0695 8.33083 35.0695C10.2292 35.7456 9.90934 37.5546 9.90934 37.5546C11.5835 38.3039 10.8929 39.8465 10.8929 39.8465C11.4848 40.0865 11.6941 40.5548 11.7479 40.71C11.7748 40.789 11.8047 40.8651 11.8346 40.9412L12.9826 43.8215C13.1799 44.3161 13.7838 44.7201 14.3249 44.7201C15.0096 44.7201 15.4849 44.0498 15.2428 43.4234L14.7076 42.0272L13.9931 40.1626C13.9423 40.0309 14.032 39.8875 14.1785 39.8787C14.2741 39.8728 14.3578 39.9314 14.3967 40.0192L15.3354 42.235L16.032 43.8742C16.2712 44.4391 16.902 44.7611 17.5029 44.5913C18.2204 44.3864 18.5791 43.599 18.2533 42.9375L16.5313 39.4543C16.4595 39.305 16.5582 39.1293 16.7286 39.1147C16.8242 39.1059 16.9199 39.1557 16.9648 39.2406L19.0604 43.0604L19.3205 43.5346C19.5747 44.0029 20.1367 44.2459 20.6509 44.079C21.0515 43.9503 21.3176 43.6224 21.3863 43.2507C21.4312 43.0253 21.4013 42.7853 21.2847 42.5628L19.6434 39.4513C19.5717 39.3138 19.6255 39.1381 19.772 39.0796C19.9005 39.0269 20.044 39.0825 20.1068 39.1996L21.9603 42.6243C22.1098 42.9024 22.3311 43.116 22.5941 43.2565C23.0276 43.4936 23.5658 43.5258 24.0471 43.3034C24.1398 43.2624 24.2235 43.2097 24.3042 43.1541C24.9589 42.6858 25.1652 41.7871 24.7257 41.0817L20.7137 34.6597Z" fill="#003479"/>
</g>
<path d="M4.69876 35.9594L7.01569 35.5818C7.70927 35.4676 8.18163 34.8266 8.06503 34.1446C7.95143 33.4626 7.29372 33.003 6.59715 33.1143L4.28022 33.4918C3.58365 33.606 3.11428 34.25 3.22789 34.929C3.34448 35.6111 4.00219 36.0706 4.69876 35.9594Z" fill="#00C2CB"/>
<path d="M9.24776 36.6033C9.13117 35.9242 8.47346 35.4618 7.77987 35.5759L4.6139 36.1672C3.92032 36.2813 3.44797 36.9253 3.56456 37.6044C3.68115 38.2864 4.33587 38.7489 5.03245 38.6347L8.19543 38.0434C8.892 37.9293 9.36136 37.2853 9.24776 36.6033Z" fill="#00C2CB"/>
<path d="M10.3158 39.1795C10.1992 38.4975 9.54147 38.035 8.84788 38.1491L6.52797 38.5267C5.83438 38.638 5.36203 39.2819 5.47862 39.9639C5.59522 40.646 6.25293 41.1055 6.94651 40.9913L9.26643 40.6167C9.96001 40.5025 10.4324 39.8586 10.3158 39.1795Z" fill="#00C2CB"/>
<path d="M10.455 40.5615L8.55366 40.8601C7.85708 40.9713 7.38772 41.6153 7.50132 42.2973C7.61792 42.9764 8.27563 43.4388 8.96921 43.3247L10.8736 43.029C11.5701 42.9149 12.0395 42.2709 11.9229 41.5918C11.8093 40.9098 11.1516 40.4503 10.455 40.5615Z" fill="#00C2CB"/>
</svg>
