<svg width="27" height="27" viewBox="0 0 27 27" fill="none" xmlns="http://www.w3.org/2000/svg">
<path fill-rule="evenodd" clip-rule="evenodd" d="M10.125 1.6875C9.34178 1.6875 8.59064 1.99863 8.03683 2.55245C7.48301 3.10627 7.17188 3.85741 7.17188 4.64062V6.75H5.0625C4.16739 6.75 3.30895 7.10558 2.67601 7.73851C2.04308 8.37145 1.6875 9.22989 1.6875 10.125V21.9375C1.6875 22.8326 2.04308 23.691 2.67601 24.324C3.30895 24.9569 4.16739 25.3125 5.0625 25.3125H21.9375C22.8326 25.3125 23.691 24.9569 24.324 24.324C24.9569 23.691 25.3125 22.8326 25.3125 21.9375V10.125C25.3125 9.22989 24.9569 8.37145 24.324 7.73851C23.691 7.10558 22.8326 6.75 21.9375 6.75H19.8281V4.64062C19.8281 3.85741 19.517 3.10627 18.9632 2.55245C18.4094 1.99863 17.6582 1.6875 16.875 1.6875H10.125ZM17.2969 6.75V4.64062C17.2969 4.52874 17.2524 4.42143 17.1733 4.34231C17.0942 4.2632 16.9869 4.21875 16.875 4.21875H10.125C10.0131 4.21875 9.90581 4.2632 9.82669 4.34231C9.74757 4.42143 9.70312 4.52874 9.70312 4.64062V6.75H17.2969ZM5.0625 9.28125H21.9375C22.1613 9.28125 22.3759 9.37014 22.5341 9.52838C22.6924 9.68661 22.7812 9.90122 22.7812 10.125V11.8125H4.21875V10.125C4.21875 9.90122 4.30765 9.68661 4.46588 9.52838C4.62411 9.37014 4.83872 9.28125 5.0625 9.28125ZM4.21875 14.3438V21.9375C4.21875 22.1613 4.30765 22.3759 4.46588 22.5341C4.62411 22.6924 4.83872 22.7812 5.0625 22.7812H21.9375C22.1613 22.7812 22.3759 22.6924 22.5341 22.5341C22.6924 22.3759 22.7812 22.1613 22.7812 21.9375V14.3438H15.1875V16.875H11.8125V14.3438H4.21875Z" fill="black"/>
</svg>
