<svg width="26" height="26" viewBox="0 0 26 26" fill="none" xmlns="http://www.w3.org/2000/svg">
<path d="M12.9974 8.1237C12.9974 9.12931 12.5979 10.0937 11.8868 10.8048C11.1758 11.5159 10.2113 11.9154 9.20573 11.9154C8.20012 11.9154 7.23569 11.5159 6.52462 10.8048C5.81354 10.0937 5.41406 9.12931 5.41406 8.1237C5.41406 7.11809 5.81354 6.15366 6.52462 5.44258C7.23569 4.73151 8.20012 4.33203 9.20573 4.33203C10.2113 4.33203 11.1758 4.73151 11.8868 5.44258C12.5979 6.15366 12.9974 7.11809 12.9974 8.1237Z" stroke="black" stroke-width="1.5"/>
<path d="M14.625 11.9154C15.6306 11.9154 16.595 11.5159 17.3061 10.8048C18.0172 10.0937 18.4167 9.12931 18.4167 8.1237C18.4167 7.11809 18.0172 6.15366 17.3061 5.44258C16.595 4.73151 15.6306 4.33203 14.625 4.33203" stroke="black" stroke-width="1.5" stroke-linecap="round"/>
<path d="M14.2356 21.6641H4.17581C3.06431 21.6641 2.16406 20.8332 2.16406 19.8073C2.16406 17.243 4.41631 15.1641 7.19398 15.1641H11.2175C12.2944 15.1602 13.3471 15.484 14.2356 16.0925" stroke="black" stroke-width="1.5" stroke-linecap="round" stroke-linejoin="round"/>
<path d="M20.5781 15.1641V21.6641M23.8281 18.4141H17.3281" stroke="black" stroke-width="1.5" stroke-linecap="round"/>
</svg>
