<svg width="339" height="393" viewBox="0 0 339 393" fill="none" xmlns="http://www.w3.org/2000/svg">
<g filter="url(#filter0_d_3043_39)">
<rect x="10" y="1" width="319" height="373" rx="20" fill="#5ED1D6" fill-opacity="0.05" shape-rendering="crispEdges"/>
</g>
<path d="M98.5629 222.636H103.873L109.48 236.318H109.719L115.327 222.636H120.637V243H116.461V229.746H116.292L111.022 242.901H108.178L102.908 229.696H102.739V243H98.5629V222.636ZM128.46 243.288C127.485 243.288 126.617 243.119 125.854 242.781C125.092 242.437 124.489 241.929 124.045 241.26C123.607 240.584 123.388 239.742 123.388 238.734C123.388 237.886 123.544 237.173 123.856 236.597C124.167 236.02 124.592 235.556 125.129 235.205C125.665 234.853 126.275 234.588 126.958 234.409C127.647 234.23 128.37 234.104 129.126 234.031C130.014 233.938 130.73 233.852 131.273 233.773C131.817 233.687 132.211 233.561 132.457 233.395C132.702 233.229 132.825 232.984 132.825 232.659V232.599C132.825 231.97 132.626 231.482 132.228 231.138C131.837 230.793 131.28 230.621 130.558 230.621C129.795 230.621 129.189 230.79 128.738 231.128C128.287 231.459 127.989 231.877 127.843 232.381L123.925 232.062C124.124 231.134 124.515 230.332 125.099 229.656C125.682 228.973 126.434 228.45 127.356 228.085C128.284 227.714 129.358 227.528 130.577 227.528C131.426 227.528 132.238 227.628 133.013 227.827C133.796 228.026 134.488 228.334 135.092 228.751C135.701 229.169 136.182 229.706 136.533 230.362C136.885 231.012 137.06 231.791 137.06 232.699V243H133.043V240.882H132.924C132.679 241.359 132.351 241.78 131.94 242.145C131.529 242.503 131.035 242.785 130.458 242.99C129.881 243.189 129.215 243.288 128.46 243.288ZM129.673 240.365C130.296 240.365 130.846 240.242 131.323 239.997C131.8 239.745 132.175 239.407 132.447 238.983C132.719 238.559 132.854 238.078 132.854 237.541V235.92C132.722 236.007 132.54 236.086 132.308 236.159C132.082 236.225 131.827 236.288 131.542 236.348C131.257 236.401 130.972 236.451 130.687 236.497C130.402 236.537 130.143 236.573 129.911 236.607C129.414 236.679 128.98 236.795 128.609 236.955C128.237 237.114 127.949 237.329 127.744 237.601C127.538 237.866 127.435 238.197 127.435 238.595C127.435 239.172 127.644 239.613 128.062 239.918C128.486 240.216 129.023 240.365 129.673 240.365ZM144.582 234.17V243H140.347V227.727H144.384V230.422H144.562C144.901 229.534 145.467 228.831 146.263 228.314C147.058 227.79 148.023 227.528 149.156 227.528C150.217 227.528 151.142 227.76 151.93 228.224C152.719 228.688 153.332 229.351 153.77 230.213C154.207 231.068 154.426 232.089 154.426 233.276V243H150.19V234.031C150.197 233.097 149.958 232.367 149.474 231.844C148.991 231.313 148.324 231.048 147.476 231.048C146.906 231.048 146.402 231.171 145.964 231.416C145.534 231.661 145.196 232.019 144.95 232.49C144.712 232.954 144.589 233.514 144.582 234.17ZM157.765 248.727V227.727H161.941V230.293H162.13C162.315 229.882 162.584 229.464 162.935 229.04C163.293 228.609 163.757 228.251 164.327 227.966C164.904 227.674 165.62 227.528 166.475 227.528C167.588 227.528 168.616 227.82 169.557 228.403C170.498 228.98 171.251 229.852 171.814 231.018C172.378 232.179 172.659 233.634 172.659 235.384C172.659 237.087 172.384 238.526 171.834 239.699C171.291 240.866 170.548 241.75 169.607 242.354C168.672 242.95 167.625 243.249 166.465 243.249C165.643 243.249 164.944 243.113 164.367 242.841C163.797 242.569 163.329 242.228 162.965 241.817C162.6 241.399 162.322 240.978 162.13 240.554H162V248.727H157.765ZM161.911 235.364C161.911 236.272 162.037 237.064 162.289 237.74C162.541 238.416 162.905 238.943 163.382 239.321C163.86 239.692 164.44 239.878 165.123 239.878C165.812 239.878 166.395 239.689 166.873 239.311C167.35 238.927 167.711 238.396 167.956 237.72C168.208 237.037 168.334 236.252 168.334 235.364C168.334 234.482 168.212 233.706 167.966 233.037C167.721 232.367 167.36 231.844 166.882 231.466C166.405 231.088 165.819 230.899 165.123 230.899C164.433 230.899 163.85 231.081 163.373 231.446C162.902 231.811 162.541 232.328 162.289 232.997C162.037 233.667 161.911 234.455 161.911 235.364ZM182.384 243.298C180.839 243.298 179.504 242.97 178.377 242.314C177.257 241.651 176.391 240.73 175.782 239.55C175.172 238.363 174.867 236.988 174.867 235.423C174.867 233.846 175.172 232.467 175.782 231.287C176.391 230.1 177.257 229.179 178.377 228.523C179.504 227.86 180.839 227.528 182.384 227.528C183.928 227.528 185.261 227.86 186.381 228.523C187.508 229.179 188.376 230.1 188.986 231.287C189.596 232.467 189.901 233.846 189.901 235.423C189.901 236.988 189.596 238.363 188.986 239.55C188.376 240.73 187.508 241.651 186.381 242.314C185.261 242.97 183.928 243.298 182.384 243.298ZM182.404 240.017C183.106 240.017 183.693 239.818 184.164 239.42C184.634 239.016 184.989 238.466 185.228 237.77C185.473 237.074 185.596 236.282 185.596 235.393C185.596 234.505 185.473 233.713 185.228 233.017C184.989 232.321 184.634 231.771 184.164 231.366C183.693 230.962 183.106 230.76 182.404 230.76C181.694 230.76 181.098 230.962 180.614 231.366C180.137 231.771 179.775 232.321 179.53 233.017C179.292 233.713 179.172 234.505 179.172 235.393C179.172 236.282 179.292 237.074 179.53 237.77C179.775 238.466 180.137 239.016 180.614 239.42C181.098 239.818 181.694 240.017 182.404 240.017ZM195.285 243L191.129 227.727H195.414L197.781 237.989H197.92L200.386 227.727H204.592L207.098 237.929H207.227L209.554 227.727H213.829L209.683 243H205.199L202.574 233.395H202.385L199.76 243H195.285ZM222.666 243.298C221.095 243.298 219.743 242.98 218.609 242.344C217.482 241.701 216.614 240.793 216.004 239.619C215.394 238.439 215.089 237.044 215.089 235.433C215.089 233.862 215.394 232.483 216.004 231.297C216.614 230.11 217.473 229.186 218.58 228.523C219.693 227.86 220.999 227.528 222.497 227.528C223.505 227.528 224.443 227.691 225.311 228.016C226.186 228.334 226.948 228.814 227.598 229.457C228.254 230.1 228.765 230.909 229.129 231.884C229.494 232.851 229.676 233.985 229.676 235.284V236.447H216.78V233.822H225.689C225.689 233.213 225.556 232.672 225.291 232.202C225.026 231.731 224.658 231.363 224.188 231.098C223.723 230.826 223.183 230.69 222.567 230.69C221.924 230.69 221.354 230.839 220.857 231.138C220.366 231.429 219.982 231.824 219.703 232.321C219.425 232.812 219.282 233.358 219.276 233.962V236.457C219.276 237.213 219.415 237.866 219.693 238.416C219.978 238.966 220.379 239.391 220.896 239.689C221.413 239.987 222.027 240.136 222.736 240.136C223.206 240.136 223.637 240.07 224.028 239.938C224.42 239.805 224.754 239.606 225.033 239.341C225.311 239.076 225.523 238.751 225.669 238.366L229.587 238.625C229.388 239.566 228.98 240.388 228.364 241.091C227.754 241.787 226.965 242.33 225.997 242.722C225.036 243.106 223.926 243.298 222.666 243.298ZM232.44 243V227.727H236.547V230.392H236.706C236.984 229.444 237.452 228.728 238.108 228.244C238.764 227.754 239.52 227.509 240.375 227.509C240.587 227.509 240.816 227.522 241.061 227.548C241.306 227.575 241.522 227.611 241.707 227.658V231.416C241.509 231.357 241.233 231.304 240.882 231.257C240.531 231.211 240.209 231.188 239.918 231.188C239.295 231.188 238.738 231.323 238.247 231.595C237.763 231.86 237.379 232.232 237.094 232.709C236.815 233.186 236.676 233.736 236.676 234.359V243H232.44ZM113.479 268V247.636H121.513C123.057 247.636 124.373 247.931 125.46 248.521C126.548 249.105 127.376 249.917 127.946 250.957C128.523 251.991 128.811 253.185 128.811 254.537C128.811 255.889 128.52 257.082 127.936 258.116C127.353 259.151 126.508 259.956 125.401 260.533C124.3 261.109 122.968 261.398 121.404 261.398H116.283V257.947H120.708C121.536 257.947 122.219 257.805 122.756 257.52C123.299 257.228 123.704 256.827 123.969 256.317C124.241 255.8 124.377 255.206 124.377 254.537C124.377 253.861 124.241 253.271 123.969 252.767C123.704 252.257 123.299 251.862 122.756 251.584C122.212 251.299 121.523 251.156 120.688 251.156H117.784V268H113.479ZM131.528 268V252.727H135.635V255.392H135.794C136.072 254.444 136.54 253.728 137.196 253.244C137.852 252.754 138.608 252.509 139.463 252.509C139.675 252.509 139.904 252.522 140.149 252.548C140.394 252.575 140.61 252.611 140.795 252.658V256.416C140.596 256.357 140.321 256.304 139.97 256.257C139.619 256.211 139.297 256.188 139.006 256.188C138.382 256.188 137.826 256.323 137.335 256.595C136.851 256.86 136.467 257.232 136.182 257.709C135.903 258.186 135.764 258.736 135.764 259.359V268H131.528ZM149.175 268.298C147.63 268.298 146.295 267.97 145.168 267.314C144.048 266.651 143.182 265.73 142.573 264.55C141.963 263.363 141.658 261.988 141.658 260.423C141.658 258.846 141.963 257.467 142.573 256.287C143.182 255.1 144.048 254.179 145.168 253.523C146.295 252.86 147.63 252.528 149.175 252.528C150.719 252.528 152.052 252.86 153.172 253.523C154.299 254.179 155.167 255.1 155.777 256.287C156.387 257.467 156.692 258.846 156.692 260.423C156.692 261.988 156.387 263.363 155.777 264.55C155.167 265.73 154.299 266.651 153.172 267.314C152.052 267.97 150.719 268.298 149.175 268.298ZM149.195 265.017C149.897 265.017 150.484 264.818 150.955 264.42C151.425 264.016 151.78 263.466 152.019 262.77C152.264 262.074 152.387 261.282 152.387 260.393C152.387 259.505 152.264 258.713 152.019 258.017C151.78 257.321 151.425 256.771 150.955 256.366C150.484 255.962 149.897 255.76 149.195 255.76C148.485 255.76 147.889 255.962 147.405 256.366C146.928 256.771 146.566 257.321 146.321 258.017C146.083 258.713 145.963 259.505 145.963 260.393C145.963 261.282 146.083 262.074 146.321 262.77C146.566 263.466 146.928 264.016 147.405 264.42C147.889 264.818 148.485 265.017 149.195 265.017ZM173.193 252.727L167.853 268H163.08L157.741 252.727H162.215L165.387 263.655H165.546L168.708 252.727H173.193ZM175.36 268V252.727H179.596V268H175.36ZM177.488 250.759C176.858 250.759 176.318 250.55 175.867 250.132C175.423 249.708 175.201 249.201 175.201 248.611C175.201 248.027 175.423 247.527 175.867 247.109C176.318 246.685 176.858 246.473 177.488 246.473C178.118 246.473 178.655 246.685 179.099 247.109C179.55 247.527 179.775 248.027 179.775 248.611C179.775 249.201 179.55 249.708 179.099 250.132C178.655 250.55 178.118 250.759 177.488 250.759ZM188.617 268.249C187.457 268.249 186.406 267.95 185.465 267.354C184.53 266.75 183.788 265.866 183.238 264.699C182.694 263.526 182.422 262.087 182.422 260.384C182.422 258.634 182.704 257.179 183.268 256.018C183.831 254.852 184.58 253.98 185.515 253.403C186.456 252.82 187.487 252.528 188.607 252.528C189.462 252.528 190.175 252.674 190.745 252.966C191.322 253.251 191.786 253.609 192.137 254.04C192.495 254.464 192.767 254.882 192.952 255.293H193.081V247.636H197.307V268H193.131V265.554H192.952C192.753 265.978 192.472 266.399 192.107 266.817C191.749 267.228 191.282 267.569 190.705 267.841C190.135 268.113 189.439 268.249 188.617 268.249ZM189.959 264.878C190.642 264.878 191.219 264.692 191.689 264.321C192.167 263.943 192.531 263.416 192.783 262.74C193.042 262.064 193.171 261.272 193.171 260.364C193.171 259.455 193.045 258.667 192.793 257.997C192.541 257.328 192.177 256.811 191.699 256.446C191.222 256.081 190.642 255.899 189.959 255.899C189.263 255.899 188.677 256.088 188.199 256.466C187.722 256.844 187.361 257.367 187.116 258.037C186.87 258.706 186.748 259.482 186.748 260.364C186.748 261.252 186.87 262.037 187.116 262.72C187.367 263.396 187.729 263.927 188.199 264.311C188.677 264.689 189.263 264.878 189.959 264.878ZM207.75 268.298C206.179 268.298 204.827 267.98 203.693 267.344C202.566 266.701 201.698 265.793 201.088 264.619C200.478 263.439 200.173 262.044 200.173 260.433C200.173 258.862 200.478 257.483 201.088 256.297C201.698 255.11 202.557 254.186 203.664 253.523C204.777 252.86 206.083 252.528 207.581 252.528C208.589 252.528 209.527 252.691 210.395 253.016C211.27 253.334 212.032 253.814 212.682 254.457C213.338 255.1 213.849 255.909 214.213 256.884C214.578 257.851 214.76 258.985 214.76 260.284V261.447H201.864V258.822H210.773C210.773 258.213 210.64 257.672 210.375 257.202C210.11 256.731 209.742 256.363 209.271 256.098C208.807 255.826 208.267 255.69 207.651 255.69C207.008 255.69 206.438 255.839 205.941 256.138C205.45 256.429 205.066 256.824 204.787 257.321C204.509 257.812 204.366 258.358 204.36 258.962V261.457C204.36 262.213 204.499 262.866 204.777 263.416C205.062 263.966 205.463 264.391 205.98 264.689C206.497 264.987 207.11 265.136 207.82 265.136C208.29 265.136 208.721 265.07 209.112 264.938C209.503 264.805 209.838 264.606 210.117 264.341C210.395 264.076 210.607 263.751 210.753 263.366L214.671 263.625C214.472 264.566 214.064 265.388 213.448 266.091C212.838 266.787 212.049 267.33 211.081 267.722C210.12 268.106 209.01 268.298 207.75 268.298ZM217.524 268V252.727H221.631V255.392H221.79C222.068 254.444 222.536 253.728 223.192 253.244C223.848 252.754 224.604 252.509 225.459 252.509C225.671 252.509 225.9 252.522 226.145 252.548C226.39 252.575 226.606 252.611 226.791 252.658V256.416C226.593 256.357 226.317 256.304 225.966 256.257C225.615 256.211 225.293 256.188 225.002 256.188C224.378 256.188 223.822 256.323 223.331 256.595C222.847 256.86 222.463 257.232 222.178 257.709C221.899 258.186 221.76 258.736 221.76 259.359V268H217.524Z" fill="black"/>
<path d="M186.331 137.542V145.958H127.414V137.542C127.414 137.542 127.414 120.708 156.872 120.708C186.331 120.708 186.331 137.542 186.331 137.542ZM171.602 97.5623C171.602 94.6492 170.738 91.8014 169.119 89.3792C167.501 86.957 165.2 85.0692 162.509 83.9544C159.818 82.8395 156.856 82.5479 153.999 83.1162C151.142 83.6845 148.517 85.0873 146.457 87.1472C144.397 89.2071 142.995 91.8316 142.426 94.6888C141.858 97.546 142.15 100.508 143.264 103.199C144.379 105.89 146.267 108.191 148.689 109.809C151.112 111.428 153.959 112.291 156.872 112.291C160.779 112.291 164.525 110.74 167.287 107.977C170.05 105.215 171.602 101.469 171.602 97.5623ZM186.078 120.708C188.665 122.71 190.782 125.255 192.28 128.163C193.778 131.072 194.62 134.273 194.747 137.542V145.958H211.581V137.542C211.581 137.542 211.581 122.265 186.078 120.708ZM182.122 82.8332C179.226 82.8197 176.394 83.6855 174 85.3161C176.557 88.8878 177.931 93.17 177.931 97.5623C177.931 101.955 176.557 106.237 174 109.809C176.394 111.439 179.226 112.305 182.122 112.291C186.029 112.291 189.775 110.74 192.537 107.977C195.3 105.215 196.852 101.469 196.852 97.5623C196.852 93.6559 195.3 89.9095 192.537 87.1472C189.775 84.385 186.029 82.8332 182.122 82.8332Z" fill="#1E40AF"/>
<defs>
<filter id="filter0_d_3043_39" x="0" y="0" width="339" height="393" filterUnits="userSpaceOnUse" color-interpolation-filters="sRGB">
<feFlood flood-opacity="0" result="BackgroundImageFix"/>
<feColorMatrix in="SourceAlpha" type="matrix" values="0 0 0 0 0 0 0 0 0 0 0 0 0 0 0 0 0 0 127 0" result="hardAlpha"/>
<feOffset dy="9"/>
<feGaussianBlur stdDeviation="5"/>
<feComposite in2="hardAlpha" operator="out"/>
<feColorMatrix type="matrix" values="0 0 0 0 0 0 0 0 0 0 0 0 0 0 0 0 0 0 0.12 0"/>
<feBlend mode="normal" in2="BackgroundImageFix" result="effect1_dropShadow_3043_39"/>
<feBlend mode="normal" in="SourceGraphic" in2="effect1_dropShadow_3043_39" result="shape"/>
</filter>
</defs>
</svg>
