<svg width="28" height="28" viewBox="0 0 28 28" fill="none" xmlns="http://www.w3.org/2000/svg">
<path d="M21.0026 3.5C22.2403 3.5 23.4273 3.99167 24.3024 4.86683C25.1776 5.742 25.6693 6.92899 25.6693 8.16667V17.5C25.6693 18.7377 25.1776 19.9247 24.3024 20.7998C23.4273 21.675 22.2403 22.1667 21.0026 22.1667H15.4913L9.9356 25.4998C9.76829 25.6002 9.57847 25.6571 9.38351 25.6651C9.18854 25.6732 8.99467 25.6323 8.81964 25.546C8.6446 25.4598 8.49399 25.331 8.3816 25.1715C8.2692 25.012 8.1986 24.8268 8.17627 24.633L8.16927 24.5V22.1667H7.0026C5.80532 22.1667 4.65384 21.7065 3.78632 20.8813C2.91881 20.0562 2.40164 18.9291 2.34177 17.7333L2.33594 17.5V8.16667C2.33594 6.92899 2.8276 5.742 3.70277 4.86683C4.57794 3.99167 5.76493 3.5 7.0026 3.5H21.0026ZM16.3359 14H9.33594C9.02652 14 8.72977 14.1229 8.51098 14.3417C8.29219 14.5605 8.16927 14.8572 8.16927 15.1667C8.16927 15.4761 8.29219 15.7728 8.51098 15.9916C8.72977 16.2104 9.02652 16.3333 9.33594 16.3333H16.3359C16.6454 16.3333 16.9421 16.2104 17.1609 15.9916C17.3797 15.7728 17.5026 15.4761 17.5026 15.1667C17.5026 14.8572 17.3797 14.5605 17.1609 14.3417C16.9421 14.1229 16.6454 14 16.3359 14ZM18.6693 9.33333H9.33594C9.02652 9.33333 8.72977 9.45625 8.51098 9.67504C8.29219 9.89383 8.16927 10.1906 8.16927 10.5C8.16927 10.8094 8.29219 11.1062 8.51098 11.325C8.72977 11.5437 9.02652 11.6667 9.33594 11.6667H18.6693C18.9787 11.6667 19.2754 11.5437 19.4942 11.325C19.713 11.1062 19.8359 10.8094 19.8359 10.5C19.8359 10.1906 19.713 9.89383 19.4942 9.67504C19.2754 9.45625 18.9787 9.33333 18.6693 9.33333Z" fill="black"/>
</svg>
