<svg width="40" height="40" viewBox="0 0 40 40" fill="none" xmlns="http://www.w3.org/2000/svg">
<path d="M20 40C31.0457 40 40 31.0457 40 20C40 8.9543 31.0457 0 20 0C8.9543 0 0 8.9543 0 20C0 31.0457 8.9543 40 20 40Z" fill="#F39C12"/>
<path d="M21.3535 10.6364L21.1547 25.2727H18.8478L18.649 10.6364H21.3535ZM20.0012 31.1591C19.5107 31.1591 19.0898 30.9834 18.7385 30.6321C18.3871 30.2808 18.2115 29.8598 18.2115 29.3693C18.2115 28.8788 18.3871 28.4579 18.7385 28.1065C19.0898 27.7552 19.5107 27.5795 20.0012 27.5795C20.4918 27.5795 20.9127 27.7552 21.264 28.1065C21.6154 28.4579 21.791 28.8788 21.791 29.3693C21.791 29.6941 21.7082 29.9924 21.5424 30.2642C21.3833 30.536 21.1679 30.7547 20.8961 30.9205C20.631 31.0795 20.3327 31.1591 20.0012 31.1591Z" fill="white"/>
</svg>
