<svg width="29" height="31" viewBox="0 0 29 31" fill="none" xmlns="http://www.w3.org/2000/svg">
<path d="M29 25.0952V26.5714H0V25.0952L3.22222 22.1429V13.2857C3.22222 8.70952 6.49278 4.67952 11.2778 3.38048V2.95238C11.2778 2.16936 11.6173 1.41841 12.2215 0.864732C12.8258 0.311053 13.6454 0 14.5 0C15.3546 0 16.1742 0.311053 16.7785 0.864732C17.3827 1.41841 17.7222 2.16936 17.7222 2.95238V3.38048C22.5072 4.67952 25.7778 8.70952 25.7778 13.2857V22.1429L29 25.0952ZM17.7222 28.0476C17.7222 28.8306 17.3827 29.5816 16.7785 30.1353C16.1742 30.6889 15.3546 31 14.5 31C13.6454 31 12.8258 30.6889 12.2215 30.1353C11.6173 29.5816 11.2778 28.8306 11.2778 28.0476" fill="black"/>
</svg>
