<svg width="21" height="21" viewBox="0 0 21 21" fill="none" xmlns="http://www.w3.org/2000/svg">
<path d="M5.07046 11.009L11.0103 5.06913C11.6011 4.47834 12.4024 4.14644 13.2379 4.14644C14.0734 4.14644 14.8747 4.47834 15.4655 5.06913C16.0563 5.65992 16.3882 6.46121 16.3882 7.29671C16.3882 8.13221 16.0563 8.93349 15.4655 9.52428L8.41156 16.5771C8.11451 16.864 7.71666 17.0228 7.3037 17.0192C6.89074 17.0156 6.49571 16.85 6.2037 16.5579C5.91168 16.2659 5.74604 15.8709 5.74245 15.4579C5.73886 15.045 5.89761 14.6471 6.18451 14.3501L12.495 8.03958C12.5936 7.94114 12.649 7.80757 12.6491 7.66825C12.6492 7.52894 12.594 7.39529 12.4955 7.29671C12.3971 7.19813 12.2635 7.14269 12.1242 7.14259C11.9849 7.14249 11.8512 7.19774 11.7527 7.29618L5.44216 13.6067C4.95337 14.0996 4.67975 14.7661 4.68117 15.4603C4.68259 16.1545 4.95894 16.8199 5.44974 17.3109C5.94055 17.8018 6.60585 18.0783 7.30005 18.08C7.99425 18.0816 8.66082 17.8081 9.15391 17.3195L16.2078 10.2666C16.9956 9.47896 17.4383 8.41059 17.4384 7.29655C17.4385 6.18252 16.996 5.11407 16.2083 4.32626C15.4207 3.53845 14.3523 3.0958 13.2383 3.0957C12.1242 3.0956 11.0558 3.53806 10.268 4.32573L4.32706 10.2666C4.23143 10.3656 4.17851 10.4983 4.17971 10.6359C4.1809 10.7736 4.23612 10.9052 4.33346 11.0026C4.4308 11.0999 4.56247 11.1551 4.70013 11.1563C4.83778 11.1575 4.97145 11.1046 5.07046 11.009Z" fill="#0E4D92"/>
</svg>
