<svg width="47" height="47" viewBox="0 0 47 47" fill="none" xmlns="http://www.w3.org/2000/svg">
<path d="M41.125 23.5C41.125 13.7695 33.2305 5.875 23.5 5.875C13.7695 5.875 5.875 13.7695 5.875 23.5C5.875 33.2305 13.7695 41.125 23.5 41.125C33.2305 41.125 41.125 33.2305 41.125 23.5Z" stroke="#D71E1E" stroke-miterlimit="10"/>
<path d="M22.9732 15.2432L23.5001 26.4378L24.0261 15.2432C24.0294 15.1716 24.018 15.1001 23.9927 15.0331C23.9674 14.9661 23.9286 14.905 23.8789 14.8534C23.8292 14.8019 23.7694 14.761 23.7033 14.7333C23.6373 14.7056 23.5662 14.6917 23.4946 14.6924C23.4238 14.6931 23.3539 14.708 23.289 14.7363C23.2241 14.7646 23.1656 14.8056 23.1169 14.8571C23.0683 14.9085 23.0304 14.9692 23.0058 15.0355C22.9811 15.1018 22.97 15.1725 22.9732 15.2432Z" stroke="#D71E1E" stroke-linecap="round" stroke-linejoin="round"/>
<path d="M23.5 33.7734C23.1369 33.7734 22.7819 33.6658 22.48 33.464C22.1781 33.2623 21.9428 32.9756 21.8038 32.6401C21.6649 32.3046 21.6285 31.9355 21.6993 31.5793C21.7702 31.2232 21.945 30.8961 22.2018 30.6393C22.4586 30.3825 22.7857 30.2077 23.1418 30.1368C23.498 30.066 23.8671 30.1024 24.2026 30.2413C24.5381 30.3803 24.8248 30.6156 25.0265 30.9175C25.2283 31.2194 25.3359 31.5744 25.3359 31.9375C25.3359 32.4244 25.1425 32.8914 24.7982 33.2357C24.4539 33.58 23.9869 33.7734 23.5 33.7734Z" fill="#D71E1E"/>
</svg>
