<svg width="29" height="29" viewBox="0 0 29 29" fill="none" xmlns="http://www.w3.org/2000/svg">
<path d="M14.5 20.5417C14.8424 20.5417 15.1295 20.4257 15.3615 20.1937C15.5935 19.9617 15.7091 19.6749 15.7083 19.3333C15.7075 18.9918 15.5915 18.705 15.3603 18.473C15.1291 18.241 14.8424 18.125 14.5 18.125C14.1576 18.125 13.8709 18.241 13.6397 18.473C13.4085 18.705 13.2925 18.9918 13.2917 19.3333C13.2909 19.6749 13.4069 19.9621 13.6397 20.1949C13.8725 20.4277 14.1593 20.5433 14.5 20.5417ZM13.2917 15.7083H15.7083V8.45833H13.2917V15.7083ZM9.96875 25.375L3.625 19.0313V9.96875L9.96875 3.625H19.0313L25.375 9.96875V19.0313L19.0313 25.375H9.96875ZM10.9958 22.9583H18.0042L22.9583 18.0042V10.9958L18.0042 6.04167H10.9958L6.04167 10.9958V18.0042L10.9958 22.9583Z" fill="black"/>
</svg>
