<svg width="18" height="18" viewBox="0 0 18 18" fill="none" xmlns="http://www.w3.org/2000/svg">
<path d="M16.0819 11.5819L12.375 15.2888L10.9181 13.8319L10.125 14.625L12.375 16.875L16.875 12.375L16.0819 11.5819ZM5.625 11.25H9V12.375H5.625V11.25ZM5.625 9H10.125V10.125H5.625V9Z" fill="#1E40AF"/>
<path d="M4.5 2.25H9V5.625C9 6.24375 9.50625 6.75 10.125 6.75H13.5V10.125H14.625V5.625C14.625 5.45625 14.5688 5.34375 14.4563 5.23125L10.5188 1.29375C10.4063 1.18125 10.2937 1.125 10.125 1.125H4.5C3.88125 1.125 3.375 1.63125 3.375 2.25V15.75C3.375 16.3687 3.88125 16.875 4.5 16.875H8.4375V15.75H4.5V2.25ZM10.125 2.475L13.275 5.625H10.125V2.475Z" fill="#1E40AF"/>
</svg>
