<svg width="16" height="16" viewBox="0 0 16 16" fill="none" xmlns="http://www.w3.org/2000/svg">
<g clip-path="url(#clip0_1740_47)">
<path d="M13.78 5.86646H12.3978C12.4294 5.69042 12.4458 5.51198 12.4467 5.33312C12.4451 5.15597 12.4302 4.97918 12.4023 4.80424H13.7045C13.7988 4.80424 13.8892 4.76677 13.9559 4.7001C14.0226 4.63342 14.06 4.54298 14.06 4.44868C14.06 4.35438 14.0226 4.26394 13.9559 4.19726C13.8892 4.13058 13.7988 4.09312 13.7045 4.09312H12.2067C11.9201 3.4012 11.433 2.8109 10.8081 2.39822C10.1831 1.98554 9.44891 1.76938 8.70003 1.77757H4.89115C4.77327 1.77757 4.66023 1.82439 4.57688 1.90774C4.49353 1.99109 4.4467 2.10414 4.4467 2.22201V4.08868H3.11337C3.01907 4.08868 2.92863 4.12614 2.86195 4.19282C2.79527 4.2595 2.75781 4.34994 2.75781 4.44424C2.75781 4.53853 2.79527 4.62897 2.86195 4.69565C2.92863 4.76233 3.01907 4.79979 3.11337 4.79979H4.4467V5.86646H3.11337C3.01907 5.86646 2.92863 5.90392 2.86195 5.9706C2.79527 6.03728 2.75781 6.12771 2.75781 6.22201C2.75781 6.31631 2.79527 6.40675 2.86195 6.47343C2.92863 6.54011 3.01907 6.57757 3.11337 6.57757H4.4467V13.7776C4.4467 13.8954 4.49353 14.0085 4.57688 14.0918C4.66023 14.1752 4.77327 14.222 4.89115 14.222C5.00902 14.222 5.12207 14.1752 5.20542 14.0918C5.28876 14.0085 5.33559 13.8954 5.33559 13.7776V8.88868H8.70003C9.44827 8.89663 10.1818 8.68088 10.8066 8.26911C11.4314 7.85733 11.9189 7.26831 12.2067 6.57757H13.78C13.8743 6.57757 13.9648 6.54011 14.0315 6.47343C14.0981 6.40675 14.1356 6.31631 14.1356 6.22201C14.1356 6.12771 14.0981 6.03728 14.0315 5.9706C13.9648 5.90392 13.8743 5.86646 13.78 5.86646ZM5.33559 2.66646H8.70003C9.2087 2.66067 9.70991 2.7891 10.1531 3.03879C10.5963 3.28849 10.9659 3.65062 11.2245 4.08868H5.33559V2.66646ZM5.33559 4.79979H11.5C11.5771 5.15117 11.5771 5.51508 11.5 5.86646H5.33559V4.79979ZM8.70003 7.99979H5.33559V6.57757H11.2245C10.9659 7.01563 10.5963 7.37776 10.1531 7.62745C9.70991 7.87715 9.2087 8.00558 8.70003 7.99979Z" fill="#1E40AF"/>
</g>
<defs>
<clipPath id="clip0_1740_47">
<rect width="16" height="16" fill="white"/>
</clipPath>
</defs>
</svg>
