<svg width="30" height="30" viewBox="0 0 30 30" fill="none" xmlns="http://www.w3.org/2000/svg">
<path d="M19.3768 17.4998H18.3893L18.0393 17.1623C18.8205 16.2548 19.3914 15.1858 19.7112 14.0319C20.0311 12.8779 20.0919 11.6675 19.8893 10.4873C19.3018 7.01235 16.4018 4.23735 12.9018 3.81235C11.6713 3.65668 10.4215 3.78456 9.24808 4.18621C8.07463 4.58785 7.00861 5.25262 6.13159 6.12964C5.25457 7.00665 4.58981 8.07267 4.18816 9.24613C3.78651 10.4196 3.65863 11.6694 3.8143 12.8998C4.2393 16.3998 7.0143 19.2998 10.4893 19.8873C11.6695 20.0899 12.8799 20.0291 14.0338 19.7093C15.1878 19.3895 16.2568 18.8185 17.1643 18.0373L17.5018 18.3873V19.3748L22.8143 24.6873C23.3268 25.1998 24.1643 25.1998 24.6768 24.6873C25.1893 24.1748 25.1893 23.3373 24.6768 22.8248L19.3768 17.4998ZM11.8768 17.4998C8.7643 17.4998 6.2518 14.9873 6.2518 11.8748C6.2518 8.76235 8.7643 6.24985 11.8768 6.24985C14.9893 6.24985 17.5018 8.76235 17.5018 11.8748C17.5018 14.9873 14.9893 17.4998 11.8768 17.4998Z" fill="white"/>
</svg>
