<svg width="106" height="106" viewBox="0 0 106 106" fill="none" xmlns="http://www.w3.org/2000/svg">
<path d="M53.0013 75.0837C50.6586 75.0837 48.4118 74.153 46.7552 72.4964C45.0986 70.8399 44.168 68.5931 44.168 66.2503C44.168 61.3478 48.0988 57.417 53.0013 57.417C55.344 57.417 57.5908 58.3476 59.2474 60.0042C60.904 61.6608 61.8346 63.9076 61.8346 66.2503C61.8346 68.5931 60.904 70.8399 59.2474 72.4964C57.5908 74.153 55.344 75.0837 53.0013 75.0837ZM79.5013 88.3337V44.167H26.5013V88.3337H79.5013ZM79.5013 35.3337C81.844 35.3337 84.0908 36.2643 85.7474 37.9209C87.404 39.5775 88.3346 41.8242 88.3346 44.167V88.3337C88.3346 90.6764 87.404 92.9232 85.7474 94.5798C84.0908 96.2363 81.844 97.167 79.5013 97.167H26.5013C24.1586 97.167 21.9118 96.2363 20.2552 94.5798C18.5986 92.9232 17.668 90.6764 17.668 88.3337V44.167C17.668 39.2645 21.5988 35.3337 26.5013 35.3337H30.918V26.5003C30.918 20.6435 33.2446 15.0265 37.386 10.8851C41.5275 6.74362 47.1444 4.41699 53.0013 4.41699C55.9013 4.41699 58.773 4.98819 61.4522 6.09799C64.1315 7.20778 66.5659 8.83442 68.6166 10.8851C70.6672 12.9357 72.2938 15.3701 73.4036 18.0494C74.5134 20.7287 75.0846 23.6003 75.0846 26.5003V35.3337H79.5013ZM53.0013 13.2503C49.4872 13.2503 46.117 14.6463 43.6321 17.1312C41.1473 19.616 39.7513 22.9862 39.7513 26.5003V35.3337H66.2513V26.5003C66.2513 22.9862 64.8553 19.616 62.3705 17.1312C59.8856 14.6463 56.5154 13.2503 53.0013 13.2503Z" fill="#5ED1D6"/>
</svg>
