<svg width="64" height="64" viewBox="0 0 64 64" fill="none" xmlns="http://www.w3.org/2000/svg">
<rect width="64" height="64" rx="32" fill="#003479"/>
<path d="M34.5575 29.2201L29.2231 34.8873M45.7384 16.0553C45.9071 15.9934 46.0888 15.9832 46.2627 16.0259C46.4366 16.0686 46.5957 16.1624 46.7219 16.2965C46.848 16.4307 46.936 16.5999 46.9759 16.7847C47.0158 16.9695 47.006 17.1626 46.9475 17.3417L36.4138 49.3235C36.3508 49.5146 36.2352 49.6813 36.0819 49.8018C35.9286 49.9223 35.7448 49.991 35.5543 49.9992C35.3638 50.0073 35.1753 49.9545 35.0134 49.8474C34.8516 49.7404 34.7237 49.5842 34.6464 49.399L28.9226 35.7185C28.8263 35.491 28.6548 35.3088 28.4407 35.2065L15.5635 29.1238C15.3897 29.0414 15.2433 28.9055 15.1429 28.7337C15.0426 28.562 14.9931 28.3622 15.0008 28.1603C15.0084 27.9583 15.0729 27.7634 15.1859 27.6008C15.2989 27.4381 15.4552 27.3152 15.6346 27.2479L45.7384 16.0553Z" stroke="white" stroke-width="1.5" stroke-linecap="round" stroke-linejoin="round"/>
</svg>
