<svg width="6" height="26" viewBox="0 0 6 26" fill="none" xmlns="http://www.w3.org/2000/svg">
<path d="M3 16C4.65685 16 6 14.6569 6 13C6 11.3431 4.65685 10 3 10C1.34315 10 0 11.3431 0 13C0 14.6569 1.34315 16 3 16Z" fill="black"/>
<path d="M3 6C4.65685 6 6 4.65685 6 3C6 1.34315 4.65685 0 3 0C1.34315 0 0 1.34315 0 3C0 4.65685 1.34315 6 3 6Z" fill="black"/>
<path d="M3 26C4.65685 26 6 24.6569 6 23C6 21.3431 4.65685 20 3 20C1.34315 20 0 21.3431 0 23C0 24.6569 1.34315 26 3 26Z" fill="black"/>
</svg>
