<svg width="32" height="32" viewBox="0 0 32 32" fill="none" xmlns="http://www.w3.org/2000/svg">
<path d="M6.15467 25.3327C5.54044 25.3327 5.028 25.1273 4.61733 24.7167C4.20667 24.306 4.00089 23.7931 4 23.178V8.82068C4 8.20646 4.20578 7.69402 4.61733 7.28335C5.02889 6.87268 5.54089 6.6669 6.15333 6.66602H25.8467C26.46 6.66602 26.972 6.87179 27.3827 7.28335C27.7933 7.6949 27.9991 8.20735 28 8.82068V23.1793C28 23.7927 27.7942 24.3051 27.3827 24.7167C26.9711 25.1282 26.4591 25.3336 25.8467 25.3327H6.15467ZM6.15467 23.9993H25.8467C26.0511 23.9993 26.2391 23.914 26.4107 23.7433C26.5822 23.5727 26.6676 23.3842 26.6667 23.178V10.666H5.33333V23.1793C5.33333 23.3838 5.41867 23.5718 5.58933 23.7433C5.76 23.9149 5.948 24.0002 6.15333 23.9993M14.6 19.1727L19.772 14.002C19.9018 13.8722 20.0573 13.8029 20.2387 13.794C20.42 13.7851 20.584 13.8545 20.7307 14.002C20.8773 14.1496 20.9511 14.3096 20.952 14.482C20.9529 14.6545 20.8791 14.8145 20.7307 14.962L15.3533 20.338C15.1382 20.5531 14.8871 20.6607 14.6 20.6607C14.3129 20.6607 14.0618 20.5531 13.8467 20.338L11.2693 17.7593C11.1396 17.6296 11.0702 17.474 11.0613 17.2927C11.0524 17.1113 11.1218 16.9473 11.2693 16.8007C11.4169 16.654 11.5769 16.5807 11.7493 16.5807C11.9218 16.5807 12.0818 16.654 12.2293 16.8007L14.6 19.1727ZM6.15467 23.9993H5.33333V7.99935H6.15467C5.94933 7.99935 5.76089 8.08468 5.58933 8.25535C5.41778 8.42602 5.33244 8.61446 5.33333 8.82068V23.1793C5.33333 23.3838 5.41867 23.5718 5.58933 23.7433C5.76 23.9149 5.948 24.0002 6.15333 23.9993" fill="black"/>
</svg>
