<svg width="91" height="91" viewBox="0 0 91 91" fill="none" xmlns="http://www.w3.org/2000/svg">
<g clip-path="url(#clip0_1065_82)">
<path d="M31.3967 2.04181C31.57 1.45218 31.9296 0.934563 32.4218 0.566475C32.9139 0.198387 33.5121 -0.000359373 34.1267 4.87826e-07H56.8767C57.327 0.000342351 57.7709 0.107642 58.1716 0.313065C58.5724 0.518488 58.9187 0.816162 59.1819 1.18158C59.4451 1.547 59.6178 1.96971 59.6857 2.41492C59.7537 2.86012 59.7149 3.31509 59.5725 3.74238L49.4488 34.125H71.0954C71.628 34.1246 72.1499 34.2738 72.6018 34.5555C73.0537 34.8373 73.4175 35.2402 73.6516 35.7186C73.8857 36.1969 73.9808 36.7313 73.9261 37.261C73.8713 37.7908 73.669 38.2945 73.342 38.7148L33.5295 89.9023C33.1216 90.4292 32.5417 90.7962 31.8909 90.9392C31.2401 91.0821 30.5598 90.9921 29.9686 90.6846C29.3775 90.3772 28.913 89.872 28.6564 89.2571C28.3997 88.6422 28.3671 87.9567 28.5643 87.3202L38.8075 54.0312H19.9079C19.4658 54.0315 19.0297 53.9287 18.6343 53.7309C18.2388 53.5332 17.895 53.2459 17.63 52.892C17.365 52.5382 17.1861 52.1273 17.1077 51.6922C17.0292 51.2571 17.0532 50.8097 17.1779 50.3856L31.3967 2.04181ZM36.2538 5.6875L23.7072 48.3438H42.6579C43.103 48.3437 43.5418 48.448 43.9391 48.6484C44.3365 48.8489 44.6813 49.1398 44.9457 49.4977C45.2102 49.8556 45.3869 50.2707 45.4617 50.7094C45.5366 51.1481 45.5074 51.5982 45.3765 52.0236L38.5629 74.165L65.2828 39.8125H45.5017C45.0513 39.8122 44.6075 39.7049 44.2067 39.4994C43.8059 39.294 43.4597 38.9963 43.1964 38.6309C42.9332 38.2655 42.7605 37.8428 42.6926 37.3976C42.6247 36.9524 42.6635 36.4974 42.8058 36.0701L52.9295 5.6875H36.2538Z" fill="#5ED1D6"/>
</g>
<defs>
<clipPath id="clip0_1065_82">
<rect width="91" height="91" fill="white"/>
</clipPath>
</defs>
</svg>
