<svg width="31" height="31" viewBox="0 0 31 31" fill="none" xmlns="http://www.w3.org/2000/svg">
<path d="M16.2766 18.5996C16.8932 18.5996 17.4846 18.8446 17.9206 19.2806C18.3566 19.7166 18.6016 20.308 18.6016 20.9246V21.6996C18.6016 24.7547 15.7186 27.8996 10.8516 27.8996C5.98456 27.8996 3.10156 24.7547 3.10156 21.6996V20.9246C3.10156 20.308 3.34652 19.7166 3.78254 19.2806C4.21856 18.8446 4.80993 18.5996 5.42656 18.5996H16.2766ZM16.2766 20.1496H5.42656C5.22102 20.1496 5.0239 20.2313 4.87855 20.3766C4.73321 20.5219 4.65156 20.7191 4.65156 20.9246V21.6996C4.65156 23.9285 6.87116 26.3496 10.8516 26.3496C14.832 26.3496 17.0516 23.9285 17.0516 21.6996V20.9246C17.0516 20.7191 16.9699 20.5219 16.8246 20.3766C16.6792 20.2313 16.4821 20.1496 16.2766 20.1496ZM10.8516 8.52461C11.982 8.52461 13.0662 8.97369 13.8656 9.77307C14.665 10.5724 15.1141 11.6566 15.1141 12.7871C15.1141 13.9176 14.665 15.0018 13.8656 15.8012C13.0662 16.6005 11.982 17.0496 10.8516 17.0496C9.72108 17.0496 8.63689 16.6005 7.83752 15.8012C7.03815 15.0018 6.58906 13.9176 6.58906 12.7871C6.58906 11.6566 7.03815 10.5724 7.83752 9.77307C8.63689 8.97369 9.72108 8.52461 10.8516 8.52461ZM24.8016 3.09961C25.5834 3.09975 26.3363 3.39531 26.9094 3.92706C27.4826 4.45881 27.8336 5.18749 27.8923 5.96711L27.9016 6.19961V9.29961C27.9018 10.0817 27.6064 10.835 27.0746 11.4085C26.5429 11.9819 25.814 12.3332 25.0341 12.3919L24.8016 12.3996H22.475L20.6181 14.8796C19.7966 15.9739 18.1319 15.5306 17.8638 14.2968L17.8374 14.1248L17.8266 13.9496V12.2989L17.7057 12.2679C17.1483 12.0996 16.6495 11.7777 16.2666 11.3391C15.8836 10.9005 15.6319 10.3629 15.5403 9.78786L15.5093 9.53056L15.5016 9.29961V6.19961C15.5013 5.41752 15.7967 4.66423 16.3285 4.09076C16.8603 3.51729 17.5892 3.16602 18.3691 3.10736L18.6016 3.09961H24.8016ZM10.8516 10.0746C10.4954 10.0746 10.1426 10.1448 9.81353 10.2811C9.48444 10.4174 9.18541 10.6172 8.93354 10.8691C8.68166 11.121 8.48186 11.42 8.34554 11.7491C8.20922 12.0782 8.13906 12.4309 8.13906 12.7871C8.13906 13.1433 8.20922 13.496 8.34554 13.8251C8.48186 14.1542 8.68166 14.4533 8.93354 14.7051C9.18541 14.957 9.48444 15.1568 9.81353 15.2931C10.1426 15.4294 10.4954 15.4996 10.8516 15.4996C11.571 15.4996 12.2609 15.2138 12.7696 14.7051C13.2783 14.1964 13.5641 13.5065 13.5641 12.7871C13.5641 12.0677 13.2783 11.3778 12.7696 10.8691C12.2609 10.3604 11.571 10.0746 10.8516 10.0746ZM24.8016 4.64961H18.6016C18.2219 4.64966 17.8555 4.78904 17.5718 5.04132C17.2881 5.2936 17.1068 5.64122 17.0624 6.01826L17.0516 6.19961V9.29961C17.0516 9.67926 17.191 10.0457 17.4433 10.3294C17.6955 10.6131 18.0432 10.7943 18.4202 10.8388L18.6016 10.8496H19.3766V13.9496L21.7016 10.8496H24.8016C25.1812 10.8496 25.5476 10.7102 25.8313 10.4579C26.115 10.2056 26.2963 9.858 26.3407 9.48096L26.3516 9.29961V6.19961C26.3515 5.81996 26.2121 5.45354 25.9599 5.16983C25.7076 4.88613 25.36 4.70488 24.9829 4.66046L24.8016 4.64961Z" fill="black"/>
</svg>
