<svg width="24" height="24" viewBox="0 0 24 24" fill="none" xmlns="http://www.w3.org/2000/svg">
<path fill-rule="evenodd" clip-rule="evenodd" d="M7.946 1.25H16.056C17.423 1.25 18.526 1.25 19.393 1.367C20.293 1.487 21.051 1.747 21.653 2.348C22.255 2.95 22.513 3.708 22.635 4.608C22.751 5.475 22.751 6.578 22.751 7.945V12.055C22.751 13.422 22.751 14.525 22.635 15.392C22.513 16.292 22.255 17.05 21.653 17.652C21.155 18.15 20.548 18.415 19.837 18.559C19.147 18.699 18.314 18.735 17.329 18.746H17.099C16.9985 19.0576 16.8378 19.3464 16.626 19.596C16.4951 19.7497 16.4161 19.9408 16.4 20.142C16.3536 20.7251 16.1009 21.2726 15.6872 21.6862C15.2736 22.0999 14.7261 22.3526 14.143 22.399C13.9418 22.4151 13.7507 22.4941 13.597 22.625C13.1518 23.0045 12.586 23.213 12.001 23.213C11.416 23.213 10.8502 23.0045 10.405 22.625C10.2513 22.4941 10.0602 22.4151 9.859 22.399C9.2757 22.3528 8.72797 22.1002 8.31414 21.6865C7.9003 21.2729 7.64746 20.7253 7.601 20.142C7.58495 19.9408 7.50587 19.7497 7.375 19.596C7.16378 19.3469 7.00343 19.0588 6.903 18.748C5.863 18.741 4.992 18.712 4.276 18.581C3.518 18.441 2.873 18.177 2.348 17.651C1.746 17.05 1.488 16.291 1.367 15.391C1.25 14.525 1.25 13.422 1.25 12.055V7.945C1.25 6.578 1.25 5.475 1.367 4.608C1.487 3.708 1.747 2.95 2.348 2.348C2.95 1.746 3.708 1.488 4.608 1.367C5.475 1.25 6.578 1.25 7.945 1.25M6.905 17.248C7.001 16.946 7.158 16.658 7.375 16.404C7.50587 16.2503 7.58495 16.0592 7.601 15.858C7.64723 15.2745 7.89997 14.7267 8.31383 14.3128C8.72769 13.899 9.27555 13.6462 9.859 13.6C10.0604 13.5837 10.2514 13.5042 10.405 13.373C10.8502 12.9935 11.416 12.785 12.001 12.785C12.586 12.785 13.1518 12.9935 13.597 13.373C13.7506 13.5042 13.9417 13.5837 14.143 13.6C14.7261 13.6464 15.2736 13.8991 15.6872 14.3128C16.1009 14.7264 16.3536 15.2739 16.4 15.857C16.4161 16.0582 16.4951 16.2493 16.626 16.403C16.843 16.657 16.999 16.943 17.096 17.245H17.316C18.301 17.235 19.003 17.197 19.538 17.089C20.052 16.984 20.36 16.822 20.592 16.59C20.869 16.313 21.049 15.925 21.148 15.19C21.249 14.435 21.251 13.434 21.251 11.999V8C21.251 6.565 21.249 5.563 21.148 4.808C21.049 4.074 20.868 3.686 20.592 3.409C20.315 3.132 19.927 2.952 19.192 2.853C18.437 2.752 17.436 2.75 16.001 2.75H8.001C6.566 2.75 5.564 2.752 4.809 2.853C4.075 2.952 3.687 3.133 3.41 3.409C3.133 3.686 2.953 4.074 2.854 4.809C2.753 5.562 2.751 6.564 2.751 8V12C2.751 13.435 2.753 14.437 2.854 15.192C2.953 15.926 3.134 16.314 3.41 16.591C3.653 16.834 3.982 17.001 4.548 17.106C5.118 17.21 5.864 17.24 6.905 17.248ZM8.251 6C8.251 5.80109 8.33002 5.61032 8.47067 5.46967C8.61132 5.32902 8.80209 5.25 9.001 5.25H15.001C15.1999 5.25 15.3907 5.32902 15.5313 5.46967C15.672 5.61032 15.751 5.80109 15.751 6C15.751 6.19891 15.672 6.38968 15.5313 6.53033C15.3907 6.67098 15.1999 6.75 15.001 6.75H9.001C8.80209 6.75 8.61132 6.67098 8.47067 6.53033C8.33002 6.38968 8.251 6.19891 8.251 6ZM6.251 9.5C6.251 9.30109 6.33002 9.11032 6.47067 8.96967C6.61132 8.82902 6.80209 8.75 7.001 8.75H17.001C17.1999 8.75 17.3907 8.82902 17.5313 8.96967C17.672 9.11032 17.751 9.30109 17.751 9.5C17.751 9.69891 17.672 9.88968 17.5313 10.0303C17.3907 10.171 17.1999 10.25 17.001 10.25H7.001C6.80209 10.25 6.61132 10.171 6.47067 10.0303C6.33002 9.88968 6.251 9.69891 6.251 9.5ZM12.624 14.516C12.4503 14.3678 12.2294 14.2864 12.001 14.2864C11.7726 14.2864 11.5517 14.3678 11.378 14.516C10.984 14.8518 10.4941 15.0548 9.978 15.096C9.75055 15.1143 9.53705 15.213 9.37579 15.3745C9.21452 15.5359 9.11604 15.7495 9.098 15.977C9.0568 16.4931 8.85383 16.983 8.518 17.377C8.3698 17.5507 8.28839 17.7716 8.28839 18C8.28839 18.2284 8.3698 18.4493 8.518 18.623C8.853 19.017 9.056 19.507 9.098 20.023C9.11627 20.2503 9.21485 20.4637 9.37609 20.6249C9.53733 20.7861 9.7507 20.8847 9.978 20.903C10.4941 20.9442 10.984 21.1472 11.378 21.483C11.5517 21.6312 11.7726 21.7126 12.001 21.7126C12.2294 21.7126 12.4503 21.6312 12.624 21.483C13.018 21.1472 13.5079 20.9442 14.024 20.903C14.2513 20.8847 14.4647 20.7861 14.6259 20.6249C14.7872 20.4637 14.8857 20.2503 14.904 20.023C14.9452 19.5069 15.1482 19.017 15.484 18.623C15.6322 18.4493 15.7136 18.2284 15.7136 18C15.7136 17.7716 15.6322 17.5507 15.484 17.377C15.1482 16.983 14.9452 16.4931 14.904 15.977C14.8857 15.7497 14.7872 15.5363 14.6259 15.3751C14.4647 15.2139 14.2513 15.1153 14.024 15.097C13.5079 15.0558 13.018 14.8528 12.624 14.517M12.989 16.453C13.0608 16.3847 13.1453 16.3312 13.2379 16.2957C13.3304 16.2603 13.4291 16.2435 13.5281 16.2464C13.6272 16.2493 13.7247 16.2718 13.815 16.3126C13.9053 16.3534 13.9866 16.4116 14.0543 16.4841C14.1219 16.5565 14.1746 16.6416 14.2092 16.7344C14.2437 16.8273 14.2595 16.9261 14.2557 17.0251C14.2519 17.1242 14.2284 17.2214 14.1868 17.3114C14.1451 17.4013 14.0861 17.482 14.013 17.549L11.87 19.549C11.7311 19.6788 11.5481 19.751 11.358 19.751C11.1679 19.751 10.9849 19.6788 10.846 19.549L9.989 18.749C9.84587 18.6127 9.76235 18.4254 9.75659 18.2278C9.75083 18.0302 9.8233 17.8383 9.95824 17.6939C10.0932 17.5495 10.2797 17.4641 10.4772 17.4565C10.6747 17.4488 10.8673 17.5195 11.013 17.653L11.358 17.975L12.989 16.453Z" fill="black"/>
</svg>
