<svg width="159" height="86" viewBox="0 0 159 86" fill="none" xmlns="http://www.w3.org/2000/svg">
<path d="M145.75 0H59.625C52.3375 0 46.375 5.95385 46.375 13.2308V72.7692C46.375 76.2782 47.771 79.6435 50.2558 82.1248C52.7407 84.606 56.1109 86 59.625 86H145.75C153.104 86 159 80.1123 159 72.7692V13.2308C159 9.72175 157.604 6.35645 155.119 3.8752C152.634 1.39395 149.264 0 145.75 0ZM145.75 72.7692H59.625V24.2785L102.688 46.3077L145.75 24.2785V72.7692ZM102.688 35.1277L59.625 13.2308H145.75L102.688 35.1277ZM33.125 72.7692C33.125 73.8938 33.3238 74.9523 33.4563 76.0769H6.625C2.968 76.0769 0 73.1 0 69.4615C0 65.8231 2.968 62.8462 6.625 62.8462H33.125V72.7692ZM19.875 9.92308H33.4563C33.3238 11.0477 33.125 12.1062 33.125 13.2308V23.1538H19.875C16.2313 23.1538 13.25 20.1769 13.25 16.5385C13.25 12.9 16.2313 9.92308 19.875 9.92308ZM6.625 43C6.625 39.3615 9.60625 36.3846 13.25 36.3846H33.125V49.6154H13.25C9.60625 49.6154 6.625 46.6385 6.625 43Z" fill="#003479"/>
</svg>
