<svg width="26" height="26" viewBox="0 0 26 26" fill="none" xmlns="http://www.w3.org/2000/svg">
<path d="M1.08203 3.25H24.9154V22.75H1.08203V3.25ZM3.2487 5.41667V20.5833H22.7487V5.41667H3.2487ZM16.7904 10.2917C17.0777 10.2917 17.3532 10.4058 17.5564 10.609C17.7596 10.8121 17.8737 11.0877 17.8737 11.375C17.8737 11.6623 17.7596 11.9379 17.5564 12.141C17.3532 12.3442 17.0777 12.4583 16.7904 12.4583C16.503 12.4583 16.2275 12.3442 16.0243 12.141C15.8212 11.9379 15.707 11.6623 15.707 11.375C15.707 11.0877 15.8212 10.8121 16.0243 10.609C16.2275 10.4058 16.503 10.2917 16.7904 10.2917ZM19.3904 13.325C19.7525 12.8421 19.973 12.268 20.0272 11.6669C20.0814 11.0657 19.9672 10.4614 19.6973 9.92156C19.4273 9.38171 19.0124 8.9277 18.499 8.61038C17.9856 8.29307 17.3939 8.125 16.7904 8.125C16.1868 8.125 15.5952 8.29307 15.0817 8.61038C14.5683 8.9277 14.1534 9.38171 13.8835 9.92156C13.6136 10.4614 13.4993 11.0657 13.5535 11.6669C13.6077 12.268 13.8282 12.8421 14.1904 13.325C13.6522 13.7286 13.2154 14.252 12.9145 14.8537C12.6137 15.4554 12.457 16.1189 12.457 16.7917V17.875H14.6237V16.7917C14.6237 16.217 14.852 15.6659 15.2583 15.2596C15.6646 14.8533 16.2157 14.625 16.7904 14.625C17.365 14.625 17.9161 14.8533 18.3224 15.2596C18.7288 15.6659 18.957 16.217 18.957 16.7917V17.875H21.1237V16.7917C21.1237 15.3736 20.4434 14.1158 19.3904 13.325ZM5.41536 9.75H10.2904V11.9167H5.41536V9.75ZM5.41536 14.0833H10.2904V16.25H5.41536V14.0833Z" fill="black"/>
</svg>
