<svg width="30" height="30" viewBox="0 0 30 30" fill="none" xmlns="http://www.w3.org/2000/svg">
<g clip-path="url(#clip0_546_1039)">
<path d="M23.5514 9.84375C23.3797 12.2268 21.612 14.0625 19.6842 14.0625C17.7565 14.0625 15.9858 12.2273 15.817 9.84375C15.6413 7.36465 17.3622 5.625 19.6842 5.625C22.0063 5.625 23.7272 7.40977 23.5514 9.84375Z" stroke="black" stroke-linecap="round" stroke-linejoin="round"/>
<path d="M19.6873 17.8125C15.8687 17.8125 12.1966 19.7092 11.2767 23.4029C11.1548 23.8916 11.4613 24.375 11.9634 24.375H27.4117C27.9138 24.375 28.2185 23.8916 28.0984 23.4029C27.1785 19.65 23.5064 17.8125 19.6873 17.8125Z" stroke="black" stroke-miterlimit="10"/>
<path d="M11.7207 10.8949C11.5835 12.798 10.155 14.2969 8.61518 14.2969C7.07534 14.2969 5.64448 12.7986 5.50971 10.8949C5.36968 8.91504 6.76011 7.5 8.61518 7.5C10.4703 7.5 11.8607 8.95137 11.7207 10.8949Z" stroke="black" stroke-linecap="round" stroke-linejoin="round"/>
<path d="M12.0709 17.9297C11.0133 17.4451 9.84842 17.2588 8.61385 17.2588C5.56698 17.2588 2.63143 18.7734 1.89608 21.7236C1.7994 22.1139 2.04432 22.5 2.4451 22.5H9.02401" stroke="black" stroke-miterlimit="10" stroke-linecap="round"/>
</g>
<defs>
<clipPath id="clip0_546_1039">
<rect width="30" height="30" fill="white"/>
</clipPath>
</defs>
</svg>
